<?xml version="1.0" encoding="utf-8" standalone="no"?>
<!DOCTYPE svg PUBLIC "-//W3C//DTD SVG 1.1//EN"
  "http://www.w3.org/Graphics/SVG/1.1/DTD/svg11.dtd">
<svg xmlns:xlink="http://www.w3.org/1999/xlink" width="412.279062pt" height="283.309884pt" viewBox="0 0 412.279062 283.309884" xmlns="http://www.w3.org/2000/svg" version="1.1">
 <metadata>
  <rdf:RDF xmlns:dc="http://purl.org/dc/elements/1.1/" xmlns:cc="http://creativecommons.org/ns#" xmlns:rdf="http://www.w3.org/1999/02/22-rdf-syntax-ns#">
   <cc:Work>
    <dc:type rdf:resource="http://purl.org/dc/dcmitype/StillImage"/>
    <dc:date>2026-07-14T01:39:15.930121</dc:date>
    <dc:format>image/svg+xml</dc:format>
    <dc:creator>
     <cc:Agent>
      <dc:title>Matplotlib v3.10.9, https://matplotlib.org/</dc:title>
     </cc:Agent>
    </dc:creator>
   </cc:Work>
  </rdf:RDF>
 </metadata>
 <defs>
  <style type="text/css">*{stroke-linejoin: round; stroke-linecap: butt}</style>
 </defs>
 <g id="figure_1">
  <g id="patch_1">
   <path d="M 0 283.309884 
L 412.279062 283.309884 
L 412.279062 0 
L 0 0 
z
" style="fill: #ffffff"/>
  </g>
  <g id="axes_1">
   <g id="patch_2">
    <path d="M 51.965 248.79754 
L 374.6 248.79754 
L 374.6 6.040371 
L 51.965 6.040371 
z
" style="fill: #ffffff"/>
   </g>
   <g id="matplotlib.axis_1">
    <g id="xtick_1">
     <g id="line2d_1">
      <path d="M 79.796716 248.79754 
L 79.796716 6.040371 
" clip-path="url(#pf5f0204808)" style="fill: none; stroke-dasharray: 0.8,1.32; stroke-dashoffset: 0; stroke: #b0b0b0; stroke-opacity: 0.6; stroke-width: 0.8"/>
     </g>
     <g id="line2d_2">
      <defs>
       <path id="me961766ece" d="M 0 0 
L 0 -5 
" style="stroke: #000000; stroke-width: 0.8"/>
      </defs>
      <g>
       <use xlink:href="#me961766ece" x="79.796716" y="248.79754" style="stroke: #000000; stroke-width: 0.8"/>
      </g>
     </g>
     <g id="text_1">
      <!-- 400 -->
      <g transform="translate(69.298591 260.655822) scale(0.11 -0.11)">
       <defs>
        <path id="DejaVuSerif-34" d="M 2234 1581 
L 2234 4063 
L 641 1581 
L 2234 1581 
z
M 3609 0 
L 1484 0 
L 1484 331 
L 2234 331 
L 2234 1247 
L 197 1247 
L 197 1588 
L 2241 4750 
L 2859 4750 
L 2859 1581 
L 3750 1581 
L 3750 1247 
L 2859 1247 
L 2859 331 
L 3609 331 
L 3609 0 
z
" transform="scale(0.015625)"/>
        <path id="DejaVuSerif-30" d="M 2034 219 
Q 2513 219 2750 744 
Q 2988 1269 2988 2328 
Q 2988 3391 2750 3916 
Q 2513 4441 2034 4441 
Q 1556 4441 1318 3916 
Q 1081 3391 1081 2328 
Q 1081 1269 1318 744 
Q 1556 219 2034 219 
z
M 2034 -91 
Q 1275 -91 848 546 
Q 422 1184 422 2328 
Q 422 3475 848 4112 
Q 1275 4750 2034 4750 
Q 2797 4750 3222 4112 
Q 3647 3475 3647 2328 
Q 3647 1184 3222 546 
Q 2797 -91 2034 -91 
z
" transform="scale(0.015625)"/>
       </defs>
       <use xlink:href="#DejaVuSerif-34"/>
       <use xlink:href="#DejaVuSerif-30" transform="translate(63.623047 0)"/>
       <use xlink:href="#DejaVuSerif-30" transform="translate(127.246094 0)"/>
      </g>
     </g>
    </g>
    <g id="xtick_2">
     <g id="line2d_3">
      <path d="M 135.824327 248.79754 
L 135.824327 6.040371 
" clip-path="url(#pf5f0204808)" style="fill: none; stroke-dasharray: 0.8,1.32; stroke-dashoffset: 0; stroke: #b0b0b0; stroke-opacity: 0.6; stroke-width: 0.8"/>
     </g>
     <g id="line2d_4">
      <g>
       <use xlink:href="#me961766ece" x="135.824327" y="248.79754" style="stroke: #000000; stroke-width: 0.8"/>
      </g>
     </g>
     <g id="text_2">
      <!-- 600 -->
      <g transform="translate(125.326202 260.655822) scale(0.11 -0.11)">
       <defs>
        <path id="DejaVuSerif-36" d="M 2094 219 
Q 2534 219 2771 542 
Q 3009 866 3009 1472 
Q 3009 2078 2771 2401 
Q 2534 2725 2094 2725 
Q 1647 2725 1412 2412 
Q 1178 2100 1178 1509 
Q 1178 888 1415 553 
Q 1653 219 2094 219 
z
M 1075 2569 
Q 1288 2803 1556 2918 
Q 1825 3034 2163 3034 
Q 2859 3034 3264 2615 
Q 3669 2197 3669 1472 
Q 3669 763 3233 336 
Q 2797 -91 2069 -91 
Q 1278 -91 853 498 
Q 428 1088 428 2181 
Q 428 3406 931 4078 
Q 1434 4750 2350 4750 
Q 2597 4750 2869 4703 
Q 3141 4656 3425 4563 
L 3425 3794 
L 3072 3794 
Q 3034 4109 2831 4275 
Q 2628 4441 2284 4441 
Q 1678 4441 1381 3981 
Q 1084 3522 1075 2569 
z
" transform="scale(0.015625)"/>
       </defs>
       <use xlink:href="#DejaVuSerif-36"/>
       <use xlink:href="#DejaVuSerif-30" transform="translate(63.623047 0)"/>
       <use xlink:href="#DejaVuSerif-30" transform="translate(127.246094 0)"/>
      </g>
     </g>
    </g>
    <g id="xtick_3">
     <g id="line2d_5">
      <path d="M 191.851939 248.79754 
L 191.851939 6.040371 
" clip-path="url(#pf5f0204808)" style="fill: none; stroke-dasharray: 0.8,1.32; stroke-dashoffset: 0; stroke: #b0b0b0; stroke-opacity: 0.6; stroke-width: 0.8"/>
     </g>
     <g id="line2d_6">
      <g>
       <use xlink:href="#me961766ece" x="191.851939" y="248.79754" style="stroke: #000000; stroke-width: 0.8"/>
      </g>
     </g>
     <g id="text_3">
      <!-- 800 -->
      <g transform="translate(181.353814 260.655822) scale(0.11 -0.11)">
       <defs>
        <path id="DejaVuSerif-38" d="M 2981 1275 
Q 2981 1775 2732 2051 
Q 2484 2328 2034 2328 
Q 1584 2328 1336 2051 
Q 1088 1775 1088 1275 
Q 1088 772 1336 495 
Q 1584 219 2034 219 
Q 2484 219 2732 495 
Q 2981 772 2981 1275 
z
M 2853 3541 
Q 2853 3966 2637 4203 
Q 2422 4441 2034 4441 
Q 1650 4441 1433 4203 
Q 1216 3966 1216 3541 
Q 1216 3113 1433 2875 
Q 1650 2638 2034 2638 
Q 2422 2638 2637 2875 
Q 2853 3113 2853 3541 
z
M 2516 2484 
Q 3047 2413 3344 2092 
Q 3641 1772 3641 1275 
Q 3641 619 3225 264 
Q 2809 -91 2034 -91 
Q 1263 -91 845 264 
Q 428 619 428 1275 
Q 428 1772 725 2092 
Q 1022 2413 1556 2484 
Q 1084 2569 832 2842 
Q 581 3116 581 3541 
Q 581 4103 968 4426 
Q 1356 4750 2034 4750 
Q 2713 4750 3100 4426 
Q 3488 4103 3488 3541 
Q 3488 3116 3236 2842 
Q 2984 2569 2516 2484 
z
" transform="scale(0.015625)"/>
       </defs>
       <use xlink:href="#DejaVuSerif-38"/>
       <use xlink:href="#DejaVuSerif-30" transform="translate(63.623047 0)"/>
       <use xlink:href="#DejaVuSerif-30" transform="translate(127.246094 0)"/>
      </g>
     </g>
    </g>
    <g id="xtick_4">
     <g id="line2d_7">
      <path d="M 247.87955 248.79754 
L 247.87955 6.040371 
" clip-path="url(#pf5f0204808)" style="fill: none; stroke-dasharray: 0.8,1.32; stroke-dashoffset: 0; stroke: #b0b0b0; stroke-opacity: 0.6; stroke-width: 0.8"/>
     </g>
     <g id="line2d_8">
      <g>
       <use xlink:href="#me961766ece" x="247.87955" y="248.79754" style="stroke: #000000; stroke-width: 0.8"/>
      </g>
     </g>
     <g id="text_4">
      <!-- 1,000 -->
      <g transform="translate(232.134081 260.655822) scale(0.11 -0.11)">
       <defs>
        <path id="DejaVuSerif-31" d="M 909 0 
L 909 331 
L 1722 331 
L 1722 4213 
L 781 3603 
L 781 4013 
L 1919 4750 
L 2350 4750 
L 2350 331 
L 3163 331 
L 3163 0 
L 909 0 
z
" transform="scale(0.015625)"/>
        <path id="DejaVuSerif-2c" d="M 231 -622 
Q 525 -406 662 -114 
Q 800 178 800 594 
L 800 709 
L 1416 709 
Q 1391 175 1164 -208 
Q 938 -591 481 -872 
L 231 -622 
z
" transform="scale(0.015625)"/>
       </defs>
       <use xlink:href="#DejaVuSerif-31"/>
       <use xlink:href="#DejaVuSerif-2c" transform="translate(63.623047 0)"/>
       <use xlink:href="#DejaVuSerif-30" transform="translate(95.410156 0)"/>
       <use xlink:href="#DejaVuSerif-30" transform="translate(159.033203 0)"/>
       <use xlink:href="#DejaVuSerif-30" transform="translate(222.65625 0)"/>
      </g>
     </g>
    </g>
    <g id="xtick_5">
     <g id="line2d_9">
      <path d="M 303.907161 248.79754 
L 303.907161 6.040371 
" clip-path="url(#pf5f0204808)" style="fill: none; stroke-dasharray: 0.8,1.32; stroke-dashoffset: 0; stroke: #b0b0b0; stroke-opacity: 0.6; stroke-width: 0.8"/>
     </g>
     <g id="line2d_10">
      <g>
       <use xlink:href="#me961766ece" x="303.907161" y="248.79754" style="stroke: #000000; stroke-width: 0.8"/>
      </g>
     </g>
     <g id="text_5">
      <!-- 1,200 -->
      <g transform="translate(288.161693 260.655822) scale(0.11 -0.11)">
       <defs>
        <path id="DejaVuSerif-32" d="M 819 3553 
L 469 3553 
L 469 4384 
Q 803 4563 1142 4656 
Q 1481 4750 1806 4750 
Q 2534 4750 2956 4397 
Q 3378 4044 3378 3438 
Q 3378 2753 2422 1800 
Q 2347 1728 2309 1691 
L 1131 513 
L 3078 513 
L 3078 1088 
L 3444 1088 
L 3444 0 
L 434 0 
L 434 341 
L 1850 1753 
Q 2319 2222 2519 2614 
Q 2719 3006 2719 3438 
Q 2719 3909 2473 4175 
Q 2228 4441 1797 4441 
Q 1350 4441 1106 4219 
Q 863 3997 819 3553 
z
" transform="scale(0.015625)"/>
       </defs>
       <use xlink:href="#DejaVuSerif-31"/>
       <use xlink:href="#DejaVuSerif-2c" transform="translate(63.623047 0)"/>
       <use xlink:href="#DejaVuSerif-32" transform="translate(95.410156 0)"/>
       <use xlink:href="#DejaVuSerif-30" transform="translate(159.033203 0)"/>
       <use xlink:href="#DejaVuSerif-30" transform="translate(222.65625 0)"/>
      </g>
     </g>
    </g>
    <g id="xtick_6">
     <g id="line2d_11">
      <path d="M 359.934773 248.79754 
L 359.934773 6.040371 
" clip-path="url(#pf5f0204808)" style="fill: none; stroke-dasharray: 0.8,1.32; stroke-dashoffset: 0; stroke: #b0b0b0; stroke-opacity: 0.6; stroke-width: 0.8"/>
     </g>
     <g id="line2d_12">
      <g>
       <use xlink:href="#me961766ece" x="359.934773" y="248.79754" style="stroke: #000000; stroke-width: 0.8"/>
      </g>
     </g>
     <g id="text_6">
      <!-- 1,400 -->
      <g transform="translate(344.189304 260.655822) scale(0.11 -0.11)">
       <use xlink:href="#DejaVuSerif-31"/>
       <use xlink:href="#DejaVuSerif-2c" transform="translate(63.623047 0)"/>
       <use xlink:href="#DejaVuSerif-34" transform="translate(95.410156 0)"/>
       <use xlink:href="#DejaVuSerif-30" transform="translate(159.033203 0)"/>
       <use xlink:href="#DejaVuSerif-30" transform="translate(222.65625 0)"/>
      </g>
     </g>
    </g>
    <g id="text_7">
     <!-- Packet Size (Bytes) -->
     <g transform="translate(150.0375 276.821447) scale(0.13 -0.13)">
      <defs>
       <path id="DejaVuSerif-50" d="M 1581 2375 
L 2406 2375 
Q 2872 2375 3115 2626 
Q 3359 2878 3359 3353 
Q 3359 3831 3115 4081 
Q 2872 4331 2406 4331 
L 1581 4331 
L 1581 2375 
z
M 353 0 
L 353 331 
L 947 331 
L 947 4331 
L 353 4331 
L 353 4666 
L 2559 4666 
Q 3259 4666 3668 4311 
Q 4078 3956 4078 3353 
Q 4078 2753 3668 2397 
Q 3259 2041 2559 2041 
L 1581 2041 
L 1581 331 
L 2303 331 
L 2303 0 
L 353 0 
z
" transform="scale(0.015625)"/>
       <path id="DejaVuSerif-61" d="M 2547 1044 
L 2547 1747 
L 1806 1747 
Q 1378 1747 1168 1562 
Q 959 1378 959 997 
Q 959 650 1171 447 
Q 1384 244 1747 244 
Q 2106 244 2326 466 
Q 2547 688 2547 1044 
z
M 3122 2075 
L 3122 331 
L 3634 331 
L 3634 0 
L 2547 0 
L 2547 359 
Q 2356 128 2106 18 
Q 1856 -91 1522 -91 
Q 969 -91 644 203 
Q 319 497 319 997 
Q 319 1513 691 1797 
Q 1063 2081 1741 2081 
L 2547 2081 
L 2547 2309 
Q 2547 2688 2317 2895 
Q 2088 3103 1672 3103 
Q 1328 3103 1125 2947 
Q 922 2791 872 2484 
L 575 2484 
L 575 3156 
Q 875 3284 1158 3348 
Q 1441 3413 1709 3413 
Q 2400 3413 2761 3070 
Q 3122 2728 3122 2075 
z
" transform="scale(0.015625)"/>
       <path id="DejaVuSerif-63" d="M 3291 997 
Q 3169 466 2822 187 
Q 2475 -91 1925 -91 
Q 1200 -91 759 389 
Q 319 869 319 1663 
Q 319 2459 759 2936 
Q 1200 3413 1925 3413 
Q 2241 3413 2553 3339 
Q 2866 3266 3181 3116 
L 3181 2266 
L 2847 2266 
Q 2781 2703 2561 2903 
Q 2341 3103 1931 3103 
Q 1466 3103 1228 2742 
Q 991 2381 991 1663 
Q 991 944 1227 581 
Q 1463 219 1931 219 
Q 2303 219 2525 412 
Q 2747 606 2828 997 
L 3291 997 
z
" transform="scale(0.015625)"/>
       <path id="DejaVuSerif-6b" d="M 1831 0 
L 219 0 
L 219 331 
L 738 331 
L 738 4531 
L 184 4531 
L 184 4863 
L 1313 4863 
L 1313 1697 
L 2713 2988 
L 2234 2988 
L 2234 3322 
L 3738 3322 
L 3738 2988 
L 3169 2988 
L 2181 2075 
L 3444 331 
L 3922 331 
L 3922 0 
L 2284 0 
L 2284 331 
L 2759 331 
L 1766 1697 
L 1313 1275 
L 1313 331 
L 1831 331 
L 1831 0 
z
" transform="scale(0.015625)"/>
       <path id="DejaVuSerif-65" d="M 3469 1600 
L 991 1600 
L 991 1575 
Q 991 903 1244 561 
Q 1497 219 1991 219 
Q 2369 219 2611 417 
Q 2853 616 2950 1006 
L 3413 1006 
Q 3275 459 2904 184 
Q 2534 -91 1931 -91 
Q 1203 -91 761 389 
Q 319 869 319 1663 
Q 319 2450 753 2931 
Q 1188 3413 1894 3413 
Q 2647 3413 3050 2948 
Q 3453 2484 3469 1600 
z
M 2791 1931 
Q 2772 2513 2545 2808 
Q 2319 3103 1894 3103 
Q 1497 3103 1269 2806 
Q 1041 2509 991 1931 
L 2791 1931 
z
" transform="scale(0.015625)"/>
       <path id="DejaVuSerif-74" d="M 691 2988 
L 184 2988 
L 184 3322 
L 691 3322 
L 691 4353 
L 1269 4353 
L 1269 3322 
L 2350 3322 
L 2350 2988 
L 1269 2988 
L 1269 878 
Q 1269 456 1350 337 
Q 1431 219 1650 219 
Q 1875 219 1978 351 
Q 2081 484 2088 781 
L 2522 781 
Q 2497 328 2275 118 
Q 2053 -91 1600 -91 
Q 1103 -91 897 129 
Q 691 350 691 878 
L 691 2988 
z
" transform="scale(0.015625)"/>
       <path id="DejaVuSerif-20" transform="scale(0.015625)"/>
       <path id="DejaVuSerif-53" d="M 594 225 
L 594 1288 
L 953 1284 
Q 969 753 1261 498 
Q 1553 244 2150 244 
Q 2706 244 2998 464 
Q 3291 684 3291 1106 
Q 3291 1444 3114 1625 
Q 2938 1806 2369 1978 
L 1753 2163 
Q 1084 2366 811 2669 
Q 538 2972 538 3500 
Q 538 4094 959 4422 
Q 1381 4750 2144 4750 
Q 2469 4750 2856 4679 
Q 3244 4609 3681 4475 
L 3681 3481 
L 3328 3481 
Q 3275 3975 2998 4195 
Q 2722 4416 2156 4416 
Q 1663 4416 1405 4214 
Q 1147 4013 1147 3628 
Q 1147 3294 1340 3103 
Q 1534 2913 2163 2725 
L 2741 2553 
Q 3375 2363 3645 2067 
Q 3916 1772 3916 1275 
Q 3916 597 3481 253 
Q 3047 -91 2188 -91 
Q 1803 -91 1404 -12 
Q 1006 66 594 225 
z
" transform="scale(0.015625)"/>
       <path id="DejaVuSerif-69" d="M 622 4353 
Q 622 4497 726 4603 
Q 831 4709 978 4709 
Q 1122 4709 1226 4603 
Q 1331 4497 1331 4353 
Q 1331 4206 1228 4103 
Q 1125 4000 978 4000 
Q 831 4000 726 4103 
Q 622 4206 622 4353 
z
M 1356 331 
L 1900 331 
L 1900 0 
L 231 0 
L 231 331 
L 781 331 
L 781 2988 
L 231 2988 
L 231 3322 
L 1356 3322 
L 1356 331 
z
" transform="scale(0.015625)"/>
       <path id="DejaVuSerif-7a" d="M 256 0 
L 256 269 
L 2338 2988 
L 691 2988 
L 691 2413 
L 359 2413 
L 359 3322 
L 3078 3322 
L 3078 3053 
L 997 331 
L 2803 331 
L 2803 934 
L 3138 934 
L 3138 0 
L 256 0 
z
" transform="scale(0.015625)"/>
       <path id="DejaVuSerif-28" d="M 2041 -997 
Q 1281 -656 893 83 
Q 506 822 506 1931 
Q 506 3044 893 3783 
Q 1281 4522 2041 4863 
L 2041 4556 
Q 1559 4225 1350 3623 
Q 1141 3022 1141 1931 
Q 1141 844 1350 242 
Q 1559 -359 2041 -691 
L 2041 -997 
z
" transform="scale(0.015625)"/>
       <path id="DejaVuSerif-42" d="M 1581 331 
L 2516 331 
Q 3078 331 3337 575 
Q 3597 819 3597 1350 
Q 3597 1878 3339 2120 
Q 3081 2363 2516 2363 
L 1581 2363 
L 1581 331 
z
M 1581 2694 
L 2375 2694 
Q 2888 2694 3123 2891 
Q 3359 3088 3359 3513 
Q 3359 3941 3123 4136 
Q 2888 4331 2375 4331 
L 1581 4331 
L 1581 2694 
z
M 353 0 
L 353 331 
L 947 331 
L 947 4331 
L 353 4331 
L 353 4666 
L 2656 4666 
Q 3363 4666 3720 4377 
Q 4078 4088 4078 3513 
Q 4078 3097 3829 2850 
Q 3581 2603 3103 2547 
Q 3697 2472 4005 2167 
Q 4313 1863 4313 1350 
Q 4313 656 3875 328 
Q 3438 0 2509 0 
L 353 0 
z
" transform="scale(0.015625)"/>
       <path id="DejaVuSerif-79" d="M 1381 -609 
L 1600 -56 
L 359 2988 
L -19 2988 
L -19 3322 
L 1509 3322 
L 1509 2988 
L 978 2988 
L 1913 703 
L 2847 2988 
L 2350 2988 
L 2350 3322 
L 3597 3322 
L 3597 2988 
L 3225 2988 
L 1703 -750 
Q 1547 -1138 1356 -1280 
Q 1166 -1422 819 -1422 
Q 672 -1422 517 -1397 
Q 363 -1372 206 -1325 
L 206 -691 
L 500 -691 
Q 519 -903 608 -995 
Q 697 -1088 884 -1088 
Q 1056 -1088 1161 -992 
Q 1266 -897 1381 -609 
z
" transform="scale(0.015625)"/>
       <path id="DejaVuSerif-73" d="M 359 184 
L 359 959 
L 691 959 
Q 703 588 923 403 
Q 1144 219 1575 219 
Q 1963 219 2166 364 
Q 2369 509 2369 788 
Q 2369 1006 2220 1140 
Q 2072 1275 1594 1428 
L 1178 1569 
Q 750 1706 558 1912 
Q 366 2119 366 2438 
Q 366 2894 700 3153 
Q 1034 3413 1625 3413 
Q 1888 3413 2178 3344 
Q 2469 3275 2778 3144 
L 2778 2419 
L 2447 2419 
Q 2434 2741 2221 2922 
Q 2009 3103 1644 3103 
Q 1281 3103 1095 2975 
Q 909 2847 909 2591 
Q 909 2381 1050 2254 
Q 1191 2128 1613 1997 
L 2069 1856 
Q 2541 1709 2748 1489 
Q 2956 1269 2956 922 
Q 2956 450 2595 179 
Q 2234 -91 1600 -91 
Q 1278 -91 972 -22 
Q 666 47 359 184 
z
" transform="scale(0.015625)"/>
       <path id="DejaVuSerif-29" d="M 453 -997 
L 453 -691 
Q 934 -359 1145 242 
Q 1356 844 1356 1931 
Q 1356 3022 1145 3623 
Q 934 4225 453 4556 
L 453 4863 
Q 1216 4522 1603 3783 
Q 1991 3044 1991 1931 
Q 1991 822 1603 83 
Q 1216 -656 453 -997 
z
" transform="scale(0.015625)"/>
      </defs>
      <use xlink:href="#DejaVuSerif-50"/>
      <use xlink:href="#DejaVuSerif-61" transform="translate(62.785156 0)"/>
      <use xlink:href="#DejaVuSerif-63" transform="translate(122.404297 0)"/>
      <use xlink:href="#DejaVuSerif-6b" transform="translate(178.410156 0)"/>
      <use xlink:href="#DejaVuSerif-65" transform="translate(239.005859 0)"/>
      <use xlink:href="#DejaVuSerif-74" transform="translate(298.185547 0)"/>
      <use xlink:href="#DejaVuSerif-20" transform="translate(338.371094 0)"/>
      <use xlink:href="#DejaVuSerif-53" transform="translate(370.158203 0)"/>
      <use xlink:href="#DejaVuSerif-69" transform="translate(438.664062 0)"/>
      <use xlink:href="#DejaVuSerif-7a" transform="translate(470.646484 0)"/>
      <use xlink:href="#DejaVuSerif-65" transform="translate(523.332031 0)"/>
      <use xlink:href="#DejaVuSerif-20" transform="translate(582.511719 0)"/>
      <use xlink:href="#DejaVuSerif-28" transform="translate(614.298828 0)"/>
      <use xlink:href="#DejaVuSerif-42" transform="translate(653.3125 0)"/>
      <use xlink:href="#DejaVuSerif-79" transform="translate(726.798828 0)"/>
      <use xlink:href="#DejaVuSerif-74" transform="translate(783.292969 0)"/>
      <use xlink:href="#DejaVuSerif-65" transform="translate(823.478516 0)"/>
      <use xlink:href="#DejaVuSerif-73" transform="translate(882.658203 0)"/>
      <use xlink:href="#DejaVuSerif-29" transform="translate(933.976562 0)"/>
     </g>
    </g>
   </g>
   <g id="matplotlib.axis_2">
    <g id="ytick_1">
     <g id="line2d_13">
      <path d="M 51.965 242.559211 
L 374.6 242.559211 
" clip-path="url(#pf5f0204808)" style="fill: none; stroke-dasharray: 0.8,1.32; stroke-dashoffset: 0; stroke: #b0b0b0; stroke-opacity: 0.6; stroke-width: 0.8"/>
     </g>
     <g id="line2d_14">
      <defs>
       <path id="m55c3485eca" d="M 0 0 
L 5 0 
" style="stroke: #000000; stroke-width: 0.8"/>
      </defs>
      <g>
       <use xlink:href="#m55c3485eca" x="51.965" y="242.559211" style="stroke: #000000; stroke-width: 0.8"/>
      </g>
     </g>
     <g id="text_8">
      <!-- 0 -->
      <g transform="translate(41.46625 246.738351) scale(0.11 -0.11)">
       <use xlink:href="#DejaVuSerif-30"/>
      </g>
     </g>
    </g>
    <g id="ytick_2">
     <g id="line2d_15">
      <path d="M 51.965 195.603197 
L 374.6 195.603197 
" clip-path="url(#pf5f0204808)" style="fill: none; stroke-dasharray: 0.8,1.32; stroke-dashoffset: 0; stroke: #b0b0b0; stroke-opacity: 0.6; stroke-width: 0.8"/>
     </g>
     <g id="line2d_16">
      <g>
       <use xlink:href="#m55c3485eca" x="51.965" y="195.603197" style="stroke: #000000; stroke-width: 0.8"/>
      </g>
     </g>
     <g id="text_9">
      <!-- 200 -->
      <g transform="translate(27.46875 199.782337) scale(0.11 -0.11)">
       <use xlink:href="#DejaVuSerif-32"/>
       <use xlink:href="#DejaVuSerif-30" transform="translate(63.623047 0)"/>
       <use xlink:href="#DejaVuSerif-30" transform="translate(127.246094 0)"/>
      </g>
     </g>
    </g>
    <g id="ytick_3">
     <g id="line2d_17">
      <path d="M 51.965 148.647183 
L 374.6 148.647183 
" clip-path="url(#pf5f0204808)" style="fill: none; stroke-dasharray: 0.8,1.32; stroke-dashoffset: 0; stroke: #b0b0b0; stroke-opacity: 0.6; stroke-width: 0.8"/>
     </g>
     <g id="line2d_18">
      <g>
       <use xlink:href="#m55c3485eca" x="51.965" y="148.647183" style="stroke: #000000; stroke-width: 0.8"/>
      </g>
     </g>
     <g id="text_10">
      <!-- 400 -->
      <g transform="translate(27.46875 152.826323) scale(0.11 -0.11)">
       <use xlink:href="#DejaVuSerif-34"/>
       <use xlink:href="#DejaVuSerif-30" transform="translate(63.623047 0)"/>
       <use xlink:href="#DejaVuSerif-30" transform="translate(127.246094 0)"/>
      </g>
     </g>
    </g>
    <g id="ytick_4">
     <g id="line2d_19">
      <path d="M 51.965 101.691169 
L 374.6 101.691169 
" clip-path="url(#pf5f0204808)" style="fill: none; stroke-dasharray: 0.8,1.32; stroke-dashoffset: 0; stroke: #b0b0b0; stroke-opacity: 0.6; stroke-width: 0.8"/>
     </g>
     <g id="line2d_20">
      <g>
       <use xlink:href="#m55c3485eca" x="51.965" y="101.691169" style="stroke: #000000; stroke-width: 0.8"/>
      </g>
     </g>
     <g id="text_11">
      <!-- 600 -->
      <g transform="translate(27.46875 105.870309) scale(0.11 -0.11)">
       <use xlink:href="#DejaVuSerif-36"/>
       <use xlink:href="#DejaVuSerif-30" transform="translate(63.623047 0)"/>
       <use xlink:href="#DejaVuSerif-30" transform="translate(127.246094 0)"/>
      </g>
     </g>
    </g>
    <g id="ytick_5">
     <g id="line2d_21">
      <path d="M 51.965 54.735155 
L 374.6 54.735155 
" clip-path="url(#pf5f0204808)" style="fill: none; stroke-dasharray: 0.8,1.32; stroke-dashoffset: 0; stroke: #b0b0b0; stroke-opacity: 0.6; stroke-width: 0.8"/>
     </g>
     <g id="line2d_22">
      <g>
       <use xlink:href="#m55c3485eca" x="51.965" y="54.735155" style="stroke: #000000; stroke-width: 0.8"/>
      </g>
     </g>
     <g id="text_12">
      <!-- 800 -->
      <g transform="translate(27.46875 58.914295) scale(0.11 -0.11)">
       <use xlink:href="#DejaVuSerif-38"/>
       <use xlink:href="#DejaVuSerif-30" transform="translate(63.623047 0)"/>
       <use xlink:href="#DejaVuSerif-30" transform="translate(127.246094 0)"/>
      </g>
     </g>
    </g>
    <g id="ytick_6">
     <g id="line2d_23">
      <path d="M 51.965 7.779141 
L 374.6 7.779141 
" clip-path="url(#pf5f0204808)" style="fill: none; stroke-dasharray: 0.8,1.32; stroke-dashoffset: 0; stroke: #b0b0b0; stroke-opacity: 0.6; stroke-width: 0.8"/>
     </g>
     <g id="line2d_24">
      <g>
       <use xlink:href="#m55c3485eca" x="51.965" y="7.779141" style="stroke: #000000; stroke-width: 0.8"/>
      </g>
     </g>
     <g id="text_13">
      <!-- 1000 -->
      <g transform="translate(20.47 11.958281) scale(0.11 -0.11)">
       <use xlink:href="#DejaVuSerif-31"/>
       <use xlink:href="#DejaVuSerif-30" transform="translate(63.623047 0)"/>
       <use xlink:href="#DejaVuSerif-30" transform="translate(127.246094 0)"/>
       <use xlink:href="#DejaVuSerif-30" transform="translate(190.869141 0)"/>
      </g>
     </g>
    </g>
    <g id="text_14">
     <!-- Median Parse Latency ($\mu$s) -->
     <g transform="translate(13.48 215.688956) rotate(-90) scale(0.13 -0.13)">
      <defs>
       <path id="DejaVuSerif-4d" d="M 353 0 
L 353 331 
L 947 331 
L 947 4331 
L 319 4331 
L 319 4666 
L 1678 4666 
L 3316 1344 
L 4953 4666 
L 6228 4666 
L 6228 4331 
L 5606 4331 
L 5606 331 
L 6203 331 
L 6203 0 
L 4378 0 
L 4378 331 
L 4972 331 
L 4972 3938 
L 3372 684 
L 2931 684 
L 1331 3938 
L 1331 331 
L 1925 331 
L 1925 0 
L 353 0 
z
" transform="scale(0.015625)"/>
       <path id="DejaVuSerif-64" d="M 3359 331 
L 3909 331 
L 3909 0 
L 2784 0 
L 2784 519 
Q 2616 206 2355 57 
Q 2094 -91 1709 -91 
Q 1097 -91 708 395 
Q 319 881 319 1663 
Q 319 2444 706 2928 
Q 1094 3413 1709 3413 
Q 2094 3413 2355 3264 
Q 2616 3116 2784 2803 
L 2784 4531 
L 2241 4531 
L 2241 4863 
L 3359 4863 
L 3359 331 
z
M 2784 1497 
L 2784 1825 
Q 2784 2422 2554 2737 
Q 2325 3053 1888 3053 
Q 1444 3053 1217 2703 
Q 991 2353 991 1663 
Q 991 975 1217 622 
Q 1444 269 1888 269 
Q 2325 269 2554 583 
Q 2784 897 2784 1497 
z
" transform="scale(0.015625)"/>
       <path id="DejaVuSerif-6e" d="M 263 0 
L 263 331 
L 781 331 
L 781 2988 
L 231 2988 
L 231 3322 
L 1356 3322 
L 1356 2731 
Q 1516 3069 1770 3241 
Q 2025 3413 2363 3413 
Q 2913 3413 3172 3097 
Q 3431 2781 3431 2113 
L 3431 331 
L 3944 331 
L 3944 0 
L 2356 0 
L 2356 331 
L 2853 331 
L 2853 1931 
Q 2853 2541 2703 2767 
Q 2553 2994 2175 2994 
Q 1775 2994 1565 2701 
Q 1356 2409 1356 1850 
L 1356 331 
L 1856 331 
L 1856 0 
L 263 0 
z
" transform="scale(0.015625)"/>
       <path id="DejaVuSerif-72" d="M 3059 3328 
L 3059 2497 
L 2728 2497 
Q 2713 2744 2591 2866 
Q 2469 2988 2234 2988 
Q 1809 2988 1582 2694 
Q 1356 2400 1356 1850 
L 1356 331 
L 2022 331 
L 2022 0 
L 263 0 
L 263 331 
L 781 331 
L 781 2994 
L 231 2994 
L 231 3322 
L 1356 3322 
L 1356 2731 
Q 1525 3078 1790 3245 
Q 2056 3413 2438 3413 
Q 2578 3413 2733 3391 
Q 2888 3369 3059 3328 
z
" transform="scale(0.015625)"/>
       <path id="DejaVuSerif-4c" d="M 353 0 
L 353 331 
L 947 331 
L 947 4331 
L 353 4331 
L 353 4666 
L 2175 4666 
L 2175 4331 
L 1581 4331 
L 1581 384 
L 3713 384 
L 3713 1166 
L 4097 1166 
L 4097 0 
L 353 0 
z
" transform="scale(0.015625)"/>
       <path id="DejaVuSans-Oblique-3bc" d="M -84 -1331 
L 856 3500 
L 1434 3500 
L 1009 1322 
Q 997 1256 987 1175 
Q 978 1094 978 1013 
Q 978 722 1161 565 
Q 1344 409 1684 409 
Q 2147 409 2431 671 
Q 2716 934 2816 1459 
L 3213 3500 
L 3788 3500 
L 3266 809 
Q 3253 750 3248 706 
Q 3244 663 3244 628 
Q 3244 531 3283 486 
Q 3322 441 3406 441 
Q 3438 441 3492 456 
Q 3547 472 3647 513 
L 3559 50 
Q 3422 -19 3297 -55 
Q 3172 -91 3053 -91 
Q 2847 -91 2730 40 
Q 2613 172 2613 403 
Q 2438 153 2195 31 
Q 1953 -91 1625 -91 
Q 1334 -91 1117 43 
Q 900 178 831 397 
L 494 -1331 
L -84 -1331 
z
" transform="scale(0.015625)"/>
      </defs>
      <use xlink:href="#DejaVuSerif-4d" transform="translate(0 0.015625)"/>
      <use xlink:href="#DejaVuSerif-65" transform="translate(102.392578 0.015625)"/>
      <use xlink:href="#DejaVuSerif-64" transform="translate(161.572266 0.015625)"/>
      <use xlink:href="#DejaVuSerif-69" transform="translate(225.585938 0.015625)"/>
      <use xlink:href="#DejaVuSerif-61" transform="translate(257.568359 0.015625)"/>
      <use xlink:href="#DejaVuSerif-6e" transform="translate(317.1875 0.015625)"/>
      <use xlink:href="#DejaVuSerif-20" transform="translate(381.591797 0.015625)"/>
      <use xlink:href="#DejaVuSerif-50" transform="translate(413.378906 0.015625)"/>
      <use xlink:href="#DejaVuSerif-61" transform="translate(480.664062 0.015625)"/>
      <use xlink:href="#DejaVuSerif-72" transform="translate(540.283203 0.015625)"/>
      <use xlink:href="#DejaVuSerif-73" transform="translate(588.085938 0.015625)"/>
      <use xlink:href="#DejaVuSerif-65" transform="translate(639.404297 0.015625)"/>
      <use xlink:href="#DejaVuSerif-20" transform="translate(698.583984 0.015625)"/>
      <use xlink:href="#DejaVuSerif-4c" transform="translate(730.371094 0.015625)"/>
      <use xlink:href="#DejaVuSerif-61" transform="translate(796.777344 0.015625)"/>
      <use xlink:href="#DejaVuSerif-74" transform="translate(856.396484 0.015625)"/>
      <use xlink:href="#DejaVuSerif-65" transform="translate(896.582031 0.015625)"/>
      <use xlink:href="#DejaVuSerif-6e" transform="translate(955.761719 0.015625)"/>
      <use xlink:href="#DejaVuSerif-63" transform="translate(1020.166016 0.015625)"/>
      <use xlink:href="#DejaVuSerif-79" transform="translate(1076.171875 0.015625)"/>
      <use xlink:href="#DejaVuSerif-20" transform="translate(1132.666016 0.015625)"/>
      <use xlink:href="#DejaVuSerif-28" transform="translate(1164.453125 0.015625)"/>
      <use xlink:href="#DejaVuSans-Oblique-3bc" transform="translate(1203.466797 0.015625)"/>
      <use xlink:href="#DejaVuSerif-73" transform="translate(1267.089844 0.015625)"/>
      <use xlink:href="#DejaVuSerif-29" transform="translate(1318.408203 0.015625)"/>
     </g>
    </g>
   </g>
   <g id="line2d_25">
    <path d="M 66.630227 190.097135 
L 76.435059 183.933688 
L 87.360443 176.566055 
L 99.126242 170.638562 
L 112.292731 163.399588 
L 126.859909 154.043133 
L 142.827779 144.964188 
L 160.196338 134.145053 
L 179.525864 122.617351 
L 200.816356 110.250546 
L 224.067815 97.130331 
L 249.840516 81.895687 
L 277.854322 64.943392 
L 308.949646 46.36595 
L 343.126489 27.180896 
L 359.934773 17.074788 
" clip-path="url(#pf5f0204808)" style="fill: none; stroke: #e31a1c; stroke-width: 2.5; stroke-linecap: square"/>
    <defs>
     <path id="md6ce238d19" d="M 0 4 
C 1.060812 4 2.078319 3.578535 2.828427 2.828427 
C 3.578535 2.078319 4 1.060812 4 0 
C 4 -1.060812 3.578535 -2.078319 2.828427 -2.828427 
C 2.078319 -3.578535 1.060812 -4 0 -4 
C -1.060812 -4 -2.078319 -3.578535 -2.828427 -2.828427 
C -3.578535 -2.078319 -4 -1.060812 -4 0 
C -4 1.060812 -3.578535 2.078319 -2.828427 2.828427 
C -2.078319 3.578535 -1.060812 4 0 4 
z
" style="stroke: #e31a1c"/>
    </defs>
    <g clip-path="url(#pf5f0204808)">
     <use xlink:href="#md6ce238d19" x="66.630227" y="190.097135" style="fill: #e31a1c; stroke: #e31a1c"/>
     <use xlink:href="#md6ce238d19" x="76.435059" y="183.933688" style="fill: #e31a1c; stroke: #e31a1c"/>
     <use xlink:href="#md6ce238d19" x="87.360443" y="176.566055" style="fill: #e31a1c; stroke: #e31a1c"/>
     <use xlink:href="#md6ce238d19" x="99.126242" y="170.638562" style="fill: #e31a1c; stroke: #e31a1c"/>
     <use xlink:href="#md6ce238d19" x="112.292731" y="163.399588" style="fill: #e31a1c; stroke: #e31a1c"/>
     <use xlink:href="#md6ce238d19" x="126.859909" y="154.043133" style="fill: #e31a1c; stroke: #e31a1c"/>
     <use xlink:href="#md6ce238d19" x="142.827779" y="144.964188" style="fill: #e31a1c; stroke: #e31a1c"/>
     <use xlink:href="#md6ce238d19" x="160.196338" y="134.145053" style="fill: #e31a1c; stroke: #e31a1c"/>
     <use xlink:href="#md6ce238d19" x="179.525864" y="122.617351" style="fill: #e31a1c; stroke: #e31a1c"/>
     <use xlink:href="#md6ce238d19" x="200.816356" y="110.250546" style="fill: #e31a1c; stroke: #e31a1c"/>
     <use xlink:href="#md6ce238d19" x="224.067815" y="97.130331" style="fill: #e31a1c; stroke: #e31a1c"/>
     <use xlink:href="#md6ce238d19" x="249.840516" y="81.895687" style="fill: #e31a1c; stroke: #e31a1c"/>
     <use xlink:href="#md6ce238d19" x="277.854322" y="64.943392" style="fill: #e31a1c; stroke: #e31a1c"/>
     <use xlink:href="#md6ce238d19" x="308.949646" y="46.36595" style="fill: #e31a1c; stroke: #e31a1c"/>
     <use xlink:href="#md6ce238d19" x="343.126489" y="27.180896" style="fill: #e31a1c; stroke: #e31a1c"/>
     <use xlink:href="#md6ce238d19" x="359.934773" y="17.074788" style="fill: #e31a1c; stroke: #e31a1c"/>
    </g>
   </g>
   <g id="line2d_26">
    <path d="M 66.630227 237.763124 
L 76.435059 237.751385 
L 87.360443 237.67062 
L 99.126242 237.617873 
L 112.292731 237.607699 
L 126.859909 237.619595 
L 142.827779 237.614273 
L 160.196338 237.630551 
L 179.525864 237.560665 
L 200.816356 237.589699 
L 224.067815 237.544935 
L 249.840516 237.519265 
L 277.854322 237.470353 
L 308.949646 237.48174 
L 343.126489 237.450631 
L 359.934773 237.490309 
" clip-path="url(#pf5f0204808)" style="fill: none; stroke-dasharray: 9.25,4; stroke-dashoffset: 0; stroke: #1f78b4; stroke-width: 2.5"/>
    <defs>
     <path id="mb8a800def8" d="M -4 4 
L 4 4 
L 4 -4 
L -4 -4 
z
" style="stroke: #1f78b4; stroke-linejoin: miter"/>
    </defs>
    <g clip-path="url(#pf5f0204808)">
     <use xlink:href="#mb8a800def8" x="66.630227" y="237.763124" style="fill: #1f78b4; stroke: #1f78b4; stroke-linejoin: miter"/>
     <use xlink:href="#mb8a800def8" x="76.435059" y="237.751385" style="fill: #1f78b4; stroke: #1f78b4; stroke-linejoin: miter"/>
     <use xlink:href="#mb8a800def8" x="87.360443" y="237.67062" style="fill: #1f78b4; stroke: #1f78b4; stroke-linejoin: miter"/>
     <use xlink:href="#mb8a800def8" x="99.126242" y="237.617873" style="fill: #1f78b4; stroke: #1f78b4; stroke-linejoin: miter"/>
     <use xlink:href="#mb8a800def8" x="112.292731" y="237.607699" style="fill: #1f78b4; stroke: #1f78b4; stroke-linejoin: miter"/>
     <use xlink:href="#mb8a800def8" x="126.859909" y="237.619595" style="fill: #1f78b4; stroke: #1f78b4; stroke-linejoin: miter"/>
     <use xlink:href="#mb8a800def8" x="142.827779" y="237.614273" style="fill: #1f78b4; stroke: #1f78b4; stroke-linejoin: miter"/>
     <use xlink:href="#mb8a800def8" x="160.196338" y="237.630551" style="fill: #1f78b4; stroke: #1f78b4; stroke-linejoin: miter"/>
     <use xlink:href="#mb8a800def8" x="179.525864" y="237.560665" style="fill: #1f78b4; stroke: #1f78b4; stroke-linejoin: miter"/>
     <use xlink:href="#mb8a800def8" x="200.816356" y="237.589699" style="fill: #1f78b4; stroke: #1f78b4; stroke-linejoin: miter"/>
     <use xlink:href="#mb8a800def8" x="224.067815" y="237.544935" style="fill: #1f78b4; stroke: #1f78b4; stroke-linejoin: miter"/>
     <use xlink:href="#mb8a800def8" x="249.840516" y="237.519265" style="fill: #1f78b4; stroke: #1f78b4; stroke-linejoin: miter"/>
     <use xlink:href="#mb8a800def8" x="277.854322" y="237.470353" style="fill: #1f78b4; stroke: #1f78b4; stroke-linejoin: miter"/>
     <use xlink:href="#mb8a800def8" x="308.949646" y="237.48174" style="fill: #1f78b4; stroke: #1f78b4; stroke-linejoin: miter"/>
     <use xlink:href="#mb8a800def8" x="343.126489" y="237.450631" style="fill: #1f78b4; stroke: #1f78b4; stroke-linejoin: miter"/>
     <use xlink:href="#mb8a800def8" x="359.934773" y="237.490309" style="fill: #1f78b4; stroke: #1f78b4; stroke-linejoin: miter"/>
    </g>
   </g>
   <g id="patch_3">
    <path d="M 51.965 248.79754 
L 51.965 6.040371 
" style="fill: none; stroke: #000000; stroke-width: 1.2; stroke-linejoin: miter; stroke-linecap: square"/>
   </g>
   <g id="patch_4">
    <path d="M 374.6 248.79754 
L 374.6 6.040371 
" style="fill: none; stroke: #000000; stroke-width: 1.2; stroke-linejoin: miter; stroke-linecap: square"/>
   </g>
   <g id="patch_5">
    <path d="M 51.965 248.79754 
L 374.6 248.79754 
" style="fill: none; stroke: #000000; stroke-width: 1.2; stroke-linejoin: miter; stroke-linecap: square"/>
   </g>
   <g id="patch_6">
    <path d="M 51.965 6.040371 
L 374.6 6.040371 
" style="fill: none; stroke: #000000; stroke-width: 1.2; stroke-linejoin: miter; stroke-linecap: square"/>
   </g>
   <g id="legend_1">
    <g id="patch_7">
     <path d="M 59.665 63.747402 
L 203.789063 63.747402 
Q 205.989063 63.747402 205.989063 61.547402 
L 205.989063 13.740371 
Q 205.989063 11.540371 203.789063 11.540371 
L 59.665 11.540371 
Q 57.465 11.540371 57.465 13.740371 
L 57.465 61.547402 
Q 57.465 63.747402 59.665 63.747402 
z
" style="fill: #ffffff; stroke: #000000; stroke-linejoin: miter"/>
    </g>
    <g id="line2d_27">
     <path d="M 61.865 20.448652 
L 72.865 20.448652 
L 83.865 20.448652 
" style="fill: none; stroke: #e31a1c; stroke-width: 2.5; stroke-linecap: square"/>
     <g>
      <use xlink:href="#md6ce238d19" x="72.865" y="20.448652" style="fill: #e31a1c; stroke: #e31a1c"/>
     </g>
    </g>
    <g id="text_15">
     <!-- Unpatched Latency -->
     <g transform="translate(92.665 24.298652) scale(0.11 -0.11)">
      <defs>
       <path id="DejaVuSerif-55" d="M 897 4331 
L 300 4331 
L 300 4666 
L 2125 4666 
L 2125 4331 
L 1528 4331 
L 1528 1919 
Q 1528 1025 1820 672 
Q 2113 319 2828 319 
Q 3544 319 3836 672 
Q 4128 1025 4128 1919 
L 4128 4331 
L 3531 4331 
L 3531 4666 
L 5106 4666 
L 5106 4331 
L 4513 4331 
L 4513 1856 
Q 4513 791 4103 350 
Q 3694 -91 2713 -91 
Q 1731 -91 1314 353 
Q 897 797 897 1856 
L 897 4331 
z
" transform="scale(0.015625)"/>
       <path id="DejaVuSerif-70" d="M 1313 1825 
L 1313 1497 
Q 1313 897 1542 583 
Q 1772 269 2209 269 
Q 2650 269 2876 622 
Q 3103 975 3103 1663 
Q 3103 2353 2876 2703 
Q 2650 3053 2209 3053 
Q 1772 3053 1542 2737 
Q 1313 2422 1313 1825 
z
M 738 2988 
L 184 2988 
L 184 3322 
L 1313 3322 
L 1313 2803 
Q 1481 3116 1742 3264 
Q 2003 3413 2388 3413 
Q 3000 3413 3387 2928 
Q 3775 2444 3775 1663 
Q 3775 881 3387 395 
Q 3000 -91 2388 -91 
Q 2003 -91 1742 57 
Q 1481 206 1313 519 
L 1313 -997 
L 1856 -997 
L 1856 -1331 
L 184 -1331 
L 184 -997 
L 738 -997 
L 738 2988 
z
" transform="scale(0.015625)"/>
       <path id="DejaVuSerif-68" d="M 263 0 
L 263 331 
L 781 331 
L 781 4531 
L 231 4531 
L 231 4863 
L 1356 4863 
L 1356 2731 
Q 1516 3069 1770 3241 
Q 2025 3413 2363 3413 
Q 2913 3413 3172 3097 
Q 3431 2781 3431 2113 
L 3431 331 
L 3944 331 
L 3944 0 
L 2356 0 
L 2356 331 
L 2853 331 
L 2853 1931 
Q 2853 2541 2704 2764 
Q 2556 2988 2175 2988 
Q 1775 2988 1565 2697 
Q 1356 2406 1356 1850 
L 1356 331 
L 1856 331 
L 1856 0 
L 263 0 
z
" transform="scale(0.015625)"/>
      </defs>
      <use xlink:href="#DejaVuSerif-55"/>
      <use xlink:href="#DejaVuSerif-6e" transform="translate(84.277344 0)"/>
      <use xlink:href="#DejaVuSerif-70" transform="translate(148.681641 0)"/>
      <use xlink:href="#DejaVuSerif-61" transform="translate(212.695312 0)"/>
      <use xlink:href="#DejaVuSerif-74" transform="translate(272.314453 0)"/>
      <use xlink:href="#DejaVuSerif-63" transform="translate(312.5 0)"/>
      <use xlink:href="#DejaVuSerif-68" transform="translate(368.505859 0)"/>
      <use xlink:href="#DejaVuSerif-65" transform="translate(432.910156 0)"/>
      <use xlink:href="#DejaVuSerif-64" transform="translate(492.089844 0)"/>
      <use xlink:href="#DejaVuSerif-20" transform="translate(556.103516 0)"/>
      <use xlink:href="#DejaVuSerif-4c" transform="translate(587.890625 0)"/>
      <use xlink:href="#DejaVuSerif-61" transform="translate(654.296875 0)"/>
      <use xlink:href="#DejaVuSerif-74" transform="translate(713.916016 0)"/>
      <use xlink:href="#DejaVuSerif-65" transform="translate(754.101562 0)"/>
      <use xlink:href="#DejaVuSerif-6e" transform="translate(813.28125 0)"/>
      <use xlink:href="#DejaVuSerif-63" transform="translate(877.685547 0)"/>
      <use xlink:href="#DejaVuSerif-79" transform="translate(933.691406 0)"/>
     </g>
    </g>
    <g id="line2d_28">
     <path d="M 61.865 36.750996 
L 72.865 36.750996 
L 83.865 36.750996 
" style="fill: none; stroke-dasharray: 9.25,4; stroke-dashoffset: 0; stroke: #1f78b4; stroke-width: 2.5"/>
     <g>
      <use xlink:href="#mb8a800def8" x="72.865" y="36.750996" style="fill: #1f78b4; stroke: #1f78b4; stroke-linejoin: miter"/>
     </g>
    </g>
    <g id="text_16">
     <!-- Patched Latency -->
     <g transform="translate(92.665 40.600996) scale(0.11 -0.11)">
      <use xlink:href="#DejaVuSerif-50"/>
      <use xlink:href="#DejaVuSerif-61" transform="translate(62.785156 0)"/>
      <use xlink:href="#DejaVuSerif-74" transform="translate(122.404297 0)"/>
      <use xlink:href="#DejaVuSerif-63" transform="translate(162.589844 0)"/>
      <use xlink:href="#DejaVuSerif-68" transform="translate(218.595703 0)"/>
      <use xlink:href="#DejaVuSerif-65" transform="translate(283 0)"/>
      <use xlink:href="#DejaVuSerif-64" transform="translate(342.179688 0)"/>
      <use xlink:href="#DejaVuSerif-20" transform="translate(406.193359 0)"/>
      <use xlink:href="#DejaVuSerif-4c" transform="translate(437.980469 0)"/>
      <use xlink:href="#DejaVuSerif-61" transform="translate(504.386719 0)"/>
      <use xlink:href="#DejaVuSerif-74" transform="translate(564.005859 0)"/>
      <use xlink:href="#DejaVuSerif-65" transform="translate(604.191406 0)"/>
      <use xlink:href="#DejaVuSerif-6e" transform="translate(663.371094 0)"/>
      <use xlink:href="#DejaVuSerif-63" transform="translate(727.775391 0)"/>
      <use xlink:href="#DejaVuSerif-79" transform="translate(783.78125 0)"/>
     </g>
    </g>
    <g id="line2d_29">
     <path d="M 61.865 53.05334 
L 72.865 53.05334 
L 83.865 53.05334 
" style="fill: none; stroke-dasharray: 16,4,2.5,4; stroke-dashoffset: 0; stroke: #33a02c; stroke-width: 2.5"/>
     <defs>
      <path id="m639a980357" d="M -0 5.656854 
L 5.656854 0 
L 0 -5.656854 
L -5.656854 -0 
z
" style="stroke: #33a02c; stroke-linejoin: miter"/>
     </defs>
     <g>
      <use xlink:href="#m639a980357" x="72.865" y="53.05334" style="fill: #33a02c; stroke: #33a02c; stroke-linejoin: miter"/>
     </g>
    </g>
    <g id="text_17">
     <!-- Mitigation Gain -->
     <g transform="translate(92.665 56.90334) scale(0.11 -0.11)">
      <defs>
       <path id="DejaVuSerif-67" d="M 3359 2988 
L 3359 72 
Q 3359 -644 2965 -1033 
Q 2572 -1422 1844 -1422 
Q 1516 -1422 1216 -1362 
Q 916 -1303 641 -1184 
L 641 -488 
L 941 -488 
Q 997 -813 1206 -963 
Q 1416 -1113 1806 -1113 
Q 2313 -1113 2548 -827 
Q 2784 -541 2784 72 
L 2784 519 
Q 2616 206 2355 57 
Q 2094 -91 1709 -91 
Q 1097 -91 708 395 
Q 319 881 319 1663 
Q 319 2444 706 2928 
Q 1094 3413 1709 3413 
Q 2094 3413 2355 3264 
Q 2616 3116 2784 2803 
L 2784 3322 
L 3909 3322 
L 3909 2988 
L 3359 2988 
z
M 2784 1825 
Q 2784 2422 2554 2737 
Q 2325 3053 1888 3053 
Q 1444 3053 1217 2703 
Q 991 2353 991 1663 
Q 991 975 1217 622 
Q 1444 269 1888 269 
Q 2325 269 2554 583 
Q 2784 897 2784 1497 
L 2784 1825 
z
" transform="scale(0.015625)"/>
       <path id="DejaVuSerif-6f" d="M 1925 219 
Q 2388 219 2623 584 
Q 2859 950 2859 1663 
Q 2859 2375 2623 2739 
Q 2388 3103 1925 3103 
Q 1463 3103 1227 2739 
Q 991 2375 991 1663 
Q 991 950 1228 584 
Q 1466 219 1925 219 
z
M 1925 -91 
Q 1200 -91 759 389 
Q 319 869 319 1663 
Q 319 2456 758 2934 
Q 1197 3413 1925 3413 
Q 2653 3413 3092 2934 
Q 3531 2456 3531 1663 
Q 3531 869 3092 389 
Q 2653 -91 1925 -91 
z
" transform="scale(0.015625)"/>
       <path id="DejaVuSerif-47" d="M 4097 3272 
Q 3988 3856 3641 4136 
Q 3294 4416 2675 4416 
Q 1869 4416 1472 3897 
Q 1075 3378 1075 2328 
Q 1075 1300 1484 772 
Q 1894 244 2688 244 
Q 3041 244 3362 331 
Q 3684 419 3975 594 
L 3975 1797 
L 3097 1797 
L 3097 2131 
L 4609 2131 
L 4609 391 
Q 4194 150 3714 29 
Q 3234 -91 2688 -91 
Q 1631 -91 995 570 
Q 359 1231 359 2328 
Q 359 3434 996 4092 
Q 1634 4750 2713 4750 
Q 3113 4750 3539 4658 
Q 3966 4566 4447 4378 
L 4447 3272 
L 4097 3272 
z
" transform="scale(0.015625)"/>
      </defs>
      <use xlink:href="#DejaVuSerif-4d"/>
      <use xlink:href="#DejaVuSerif-69" transform="translate(102.392578 0)"/>
      <use xlink:href="#DejaVuSerif-74" transform="translate(134.375 0)"/>
      <use xlink:href="#DejaVuSerif-69" transform="translate(174.560547 0)"/>
      <use xlink:href="#DejaVuSerif-67" transform="translate(206.542969 0)"/>
      <use xlink:href="#DejaVuSerif-61" transform="translate(270.556641 0)"/>
      <use xlink:href="#DejaVuSerif-74" transform="translate(330.175781 0)"/>
      <use xlink:href="#DejaVuSerif-69" transform="translate(370.361328 0)"/>
      <use xlink:href="#DejaVuSerif-6f" transform="translate(402.34375 0)"/>
      <use xlink:href="#DejaVuSerif-6e" transform="translate(462.548828 0)"/>
      <use xlink:href="#DejaVuSerif-20" transform="translate(526.953125 0)"/>
      <use xlink:href="#DejaVuSerif-47" transform="translate(558.740234 0)"/>
      <use xlink:href="#DejaVuSerif-61" transform="translate(638.623047 0)"/>
      <use xlink:href="#DejaVuSerif-69" transform="translate(698.242188 0)"/>
      <use xlink:href="#DejaVuSerif-6e" transform="translate(730.224609 0)"/>
     </g>
    </g>
   </g>
  </g>
  <g id="axes_2">
   <g id="matplotlib.axis_3">
    <g id="ytick_7">
     <g id="line2d_30">
      <path d="M 51.965 243.937433 
L 374.6 243.937433 
" clip-path="url(#pf5f0204808)" style="fill: none; stroke-dasharray: 0.8,1.32; stroke-dashoffset: 0; stroke: #b0b0b0; stroke-opacity: 0.4; stroke-width: 0.8"/>
     </g>
     <g id="line2d_31">
      <defs>
       <path id="m06fb6e37b2" d="M 0 0 
L -5 0 
" style="stroke: #000000; stroke-width: 0.8"/>
      </defs>
      <g>
       <use xlink:href="#m06fb6e37b2" x="374.6" y="243.937433" style="stroke: #000000; stroke-width: 0.8"/>
      </g>
     </g>
     <g id="text_18">
      <!-- 10 -->
      <g style="fill: #33a02c" transform="translate(378.1 248.116574) scale(0.11 -0.11)">
       <use xlink:href="#DejaVuSerif-31"/>
       <use xlink:href="#DejaVuSerif-30" transform="translate(63.623047 0)"/>
      </g>
     </g>
    </g>
    <g id="ytick_8">
     <g id="line2d_32">
      <path d="M 51.965 211.043421 
L 374.6 211.043421 
" clip-path="url(#pf5f0204808)" style="fill: none; stroke-dasharray: 0.8,1.32; stroke-dashoffset: 0; stroke: #b0b0b0; stroke-opacity: 0.4; stroke-width: 0.8"/>
     </g>
     <g id="line2d_33">
      <g>
       <use xlink:href="#m06fb6e37b2" x="374.6" y="211.043421" style="stroke: #000000; stroke-width: 0.8"/>
      </g>
     </g>
     <g id="text_19">
      <!-- 15 -->
      <g style="fill: #33a02c" transform="translate(378.1 215.222562) scale(0.11 -0.11)">
       <defs>
        <path id="DejaVuSerif-35" d="M 3219 4666 
L 3219 4153 
L 1081 4153 
L 1081 2816 
Q 1244 2928 1461 2984 
Q 1678 3041 1947 3041 
Q 2703 3041 3140 2622 
Q 3578 2203 3578 1478 
Q 3578 738 3136 323 
Q 2694 -91 1894 -91 
Q 1572 -91 1234 -12 
Q 897 66 544 225 
L 544 1131 
L 897 1131 
Q 925 688 1179 453 
Q 1434 219 1894 219 
Q 2388 219 2653 544 
Q 2919 869 2919 1478 
Q 2919 2084 2655 2407 
Q 2391 2731 1894 2731 
Q 1613 2731 1398 2631 
Q 1184 2531 1019 2322 
L 750 2322 
L 750 4666 
L 3219 4666 
z
" transform="scale(0.015625)"/>
       </defs>
       <use xlink:href="#DejaVuSerif-31"/>
       <use xlink:href="#DejaVuSerif-35" transform="translate(63.623047 0)"/>
      </g>
     </g>
    </g>
    <g id="ytick_9">
     <g id="line2d_34">
      <path d="M 51.965 178.149408 
L 374.6 178.149408 
" clip-path="url(#pf5f0204808)" style="fill: none; stroke-dasharray: 0.8,1.32; stroke-dashoffset: 0; stroke: #b0b0b0; stroke-opacity: 0.4; stroke-width: 0.8"/>
     </g>
     <g id="line2d_35">
      <g>
       <use xlink:href="#m06fb6e37b2" x="374.6" y="178.149408" style="stroke: #000000; stroke-width: 0.8"/>
      </g>
     </g>
     <g id="text_20">
      <!-- 20 -->
      <g style="fill: #33a02c" transform="translate(378.1 182.328549) scale(0.11 -0.11)">
       <use xlink:href="#DejaVuSerif-32"/>
       <use xlink:href="#DejaVuSerif-30" transform="translate(63.623047 0)"/>
      </g>
     </g>
    </g>
    <g id="ytick_10">
     <g id="line2d_36">
      <path d="M 51.965 145.255396 
L 374.6 145.255396 
" clip-path="url(#pf5f0204808)" style="fill: none; stroke-dasharray: 0.8,1.32; stroke-dashoffset: 0; stroke: #b0b0b0; stroke-opacity: 0.4; stroke-width: 0.8"/>
     </g>
     <g id="line2d_37">
      <g>
       <use xlink:href="#m06fb6e37b2" x="374.6" y="145.255396" style="stroke: #000000; stroke-width: 0.8"/>
      </g>
     </g>
     <g id="text_21">
      <!-- 25 -->
      <g style="fill: #33a02c" transform="translate(378.1 149.434536) scale(0.11 -0.11)">
       <use xlink:href="#DejaVuSerif-32"/>
       <use xlink:href="#DejaVuSerif-35" transform="translate(63.623047 0)"/>
      </g>
     </g>
    </g>
    <g id="ytick_11">
     <g id="line2d_38">
      <path d="M 51.965 112.361383 
L 374.6 112.361383 
" clip-path="url(#pf5f0204808)" style="fill: none; stroke-dasharray: 0.8,1.32; stroke-dashoffset: 0; stroke: #b0b0b0; stroke-opacity: 0.4; stroke-width: 0.8"/>
     </g>
     <g id="line2d_39">
      <g>
       <use xlink:href="#m06fb6e37b2" x="374.6" y="112.361383" style="stroke: #000000; stroke-width: 0.8"/>
      </g>
     </g>
     <g id="text_22">
      <!-- 30 -->
      <g style="fill: #33a02c" transform="translate(378.1 116.540524) scale(0.11 -0.11)">
       <defs>
        <path id="DejaVuSerif-33" d="M 622 4469 
Q 988 4606 1323 4678 
Q 1659 4750 1953 4750 
Q 2638 4750 3022 4454 
Q 3406 4159 3406 3634 
Q 3406 3213 3140 2930 
Q 2875 2647 2388 2547 
Q 2963 2466 3280 2130 
Q 3597 1794 3597 1259 
Q 3597 606 3158 257 
Q 2719 -91 1894 -91 
Q 1528 -91 1179 -12 
Q 831 66 488 225 
L 488 1131 
L 838 1131 
Q 869 681 1141 450 
Q 1413 219 1906 219 
Q 2384 219 2661 495 
Q 2938 772 2938 1253 
Q 2938 1803 2653 2086 
Q 2369 2369 1819 2369 
L 1522 2369 
L 1522 2688 
L 1678 2688 
Q 2225 2688 2498 2914 
Q 2772 3141 2772 3597 
Q 2772 4006 2547 4223 
Q 2322 4441 1900 4441 
Q 1478 4441 1245 4241 
Q 1013 4041 972 3647 
L 622 3647 
L 622 4469 
z
" transform="scale(0.015625)"/>
       </defs>
       <use xlink:href="#DejaVuSerif-33"/>
       <use xlink:href="#DejaVuSerif-30" transform="translate(63.623047 0)"/>
      </g>
     </g>
    </g>
    <g id="ytick_12">
     <g id="line2d_40">
      <path d="M 51.965 79.467371 
L 374.6 79.467371 
" clip-path="url(#pf5f0204808)" style="fill: none; stroke-dasharray: 0.8,1.32; stroke-dashoffset: 0; stroke: #b0b0b0; stroke-opacity: 0.4; stroke-width: 0.8"/>
     </g>
     <g id="line2d_41">
      <g>
       <use xlink:href="#m06fb6e37b2" x="374.6" y="79.467371" style="stroke: #000000; stroke-width: 0.8"/>
      </g>
     </g>
     <g id="text_23">
      <!-- 35 -->
      <g style="fill: #33a02c" transform="translate(378.1 83.646511) scale(0.11 -0.11)">
       <use xlink:href="#DejaVuSerif-33"/>
       <use xlink:href="#DejaVuSerif-35" transform="translate(63.623047 0)"/>
      </g>
     </g>
    </g>
    <g id="ytick_13">
     <g id="line2d_42">
      <path d="M 51.965 46.573358 
L 374.6 46.573358 
" clip-path="url(#pf5f0204808)" style="fill: none; stroke-dasharray: 0.8,1.32; stroke-dashoffset: 0; stroke: #b0b0b0; stroke-opacity: 0.4; stroke-width: 0.8"/>
     </g>
     <g id="line2d_43">
      <g>
       <use xlink:href="#m06fb6e37b2" x="374.6" y="46.573358" style="stroke: #000000; stroke-width: 0.8"/>
      </g>
     </g>
     <g id="text_24">
      <!-- 40 -->
      <g style="fill: #33a02c" transform="translate(378.1 50.752499) scale(0.11 -0.11)">
       <use xlink:href="#DejaVuSerif-34"/>
       <use xlink:href="#DejaVuSerif-30" transform="translate(63.623047 0)"/>
      </g>
     </g>
    </g>
    <g id="ytick_14">
     <g id="line2d_44">
      <path d="M 51.965 13.679346 
L 374.6 13.679346 
" clip-path="url(#pf5f0204808)" style="fill: none; stroke-dasharray: 0.8,1.32; stroke-dashoffset: 0; stroke: #b0b0b0; stroke-opacity: 0.4; stroke-width: 0.8"/>
     </g>
     <g id="line2d_45">
      <g>
       <use xlink:href="#m06fb6e37b2" x="374.6" y="13.679346" style="stroke: #000000; stroke-width: 0.8"/>
      </g>
     </g>
     <g id="text_25">
      <!-- 45 -->
      <g style="fill: #33a02c" transform="translate(378.1 17.858486) scale(0.11 -0.11)">
       <use xlink:href="#DejaVuSerif-34"/>
       <use xlink:href="#DejaVuSerif-35" transform="translate(63.623047 0)"/>
      </g>
     </g>
    </g>
    <g id="text_26">
     <!-- Gain Ratio (Unpatched / Patched) -->
     <g style="fill: #33a02c" transform="translate(405.975469 238.349581) rotate(-90) scale(0.13 -0.13)">
      <defs>
       <path id="DejaVuSerif-52" d="M 3066 2316 
Q 3284 2256 3442 2114 
Q 3600 1972 3725 1716 
L 4403 331 
L 4972 331 
L 4972 0 
L 3872 0 
L 3144 1484 
Q 2934 1916 2759 2042 
Q 2584 2169 2278 2169 
L 1581 2169 
L 1581 331 
L 2241 331 
L 2241 0 
L 353 0 
L 353 331 
L 947 331 
L 947 4331 
L 353 4331 
L 353 4666 
L 2719 4666 
Q 3400 4666 3770 4341 
Q 4141 4016 4141 3419 
Q 4141 2938 3870 2661 
Q 3600 2384 3066 2316 
z
M 1581 2503 
L 2503 2503 
Q 2975 2503 3200 2726 
Q 3425 2950 3425 3419 
Q 3425 3888 3200 4109 
Q 2975 4331 2503 4331 
L 1581 4331 
L 1581 2503 
z
" transform="scale(0.015625)"/>
       <path id="DejaVuSerif-2f" d="M 1656 4666 
L 2156 4666 
L 500 -594 
L 0 -594 
L 1656 4666 
z
" transform="scale(0.015625)"/>
      </defs>
      <use xlink:href="#DejaVuSerif-47"/>
      <use xlink:href="#DejaVuSerif-61" transform="translate(79.882812 0)"/>
      <use xlink:href="#DejaVuSerif-69" transform="translate(139.501953 0)"/>
      <use xlink:href="#DejaVuSerif-6e" transform="translate(171.484375 0)"/>
      <use xlink:href="#DejaVuSerif-20" transform="translate(235.888672 0)"/>
      <use xlink:href="#DejaVuSerif-52" transform="translate(267.675781 0)"/>
      <use xlink:href="#DejaVuSerif-61" transform="translate(345.21875 0)"/>
      <use xlink:href="#DejaVuSerif-74" transform="translate(404.837891 0)"/>
      <use xlink:href="#DejaVuSerif-69" transform="translate(445.023438 0)"/>
      <use xlink:href="#DejaVuSerif-6f" transform="translate(477.005859 0)"/>
      <use xlink:href="#DejaVuSerif-20" transform="translate(537.210938 0)"/>
      <use xlink:href="#DejaVuSerif-28" transform="translate(568.998047 0)"/>
      <use xlink:href="#DejaVuSerif-55" transform="translate(608.011719 0)"/>
      <use xlink:href="#DejaVuSerif-6e" transform="translate(692.289062 0)"/>
      <use xlink:href="#DejaVuSerif-70" transform="translate(756.693359 0)"/>
      <use xlink:href="#DejaVuSerif-61" transform="translate(820.707031 0)"/>
      <use xlink:href="#DejaVuSerif-74" transform="translate(880.326172 0)"/>
      <use xlink:href="#DejaVuSerif-63" transform="translate(920.511719 0)"/>
      <use xlink:href="#DejaVuSerif-68" transform="translate(976.517578 0)"/>
      <use xlink:href="#DejaVuSerif-65" transform="translate(1040.921875 0)"/>
      <use xlink:href="#DejaVuSerif-64" transform="translate(1100.101562 0)"/>
      <use xlink:href="#DejaVuSerif-20" transform="translate(1164.115234 0)"/>
      <use xlink:href="#DejaVuSerif-2f" transform="translate(1195.902344 0)"/>
      <use xlink:href="#DejaVuSerif-20" transform="translate(1229.59375 0)"/>
      <use xlink:href="#DejaVuSerif-50" transform="translate(1261.380859 0)"/>
      <use xlink:href="#DejaVuSerif-61" transform="translate(1324.166016 0)"/>
      <use xlink:href="#DejaVuSerif-74" transform="translate(1383.785156 0)"/>
      <use xlink:href="#DejaVuSerif-63" transform="translate(1423.970703 0)"/>
      <use xlink:href="#DejaVuSerif-68" transform="translate(1479.976562 0)"/>
      <use xlink:href="#DejaVuSerif-65" transform="translate(1544.380859 0)"/>
      <use xlink:href="#DejaVuSerif-64" transform="translate(1603.560547 0)"/>
      <use xlink:href="#DejaVuSerif-29" transform="translate(1667.574219 0)"/>
     </g>
    </g>
   </g>
   <g id="line2d_46">
    <path d="M 66.630227 237.763124 
L 76.435059 229.505061 
L 87.360443 220.915416 
L 99.126242 213.971686 
L 112.292731 204.550402 
L 126.859909 191.835773 
L 142.827779 179.883911 
L 160.196338 165.013636 
L 179.525864 151.86479 
L 200.816356 134.570903 
L 224.067815 118.920677 
L 249.840516 100.006208 
L 277.854322 80.106281 
L 308.949646 55.520822 
L 343.126489 32.362371 
L 359.934773 17.074788 
" clip-path="url(#pf5f0204808)" style="fill: none; stroke-dasharray: 16,4,2.5,4; stroke-dashoffset: 0; stroke: #33a02c; stroke-width: 2.5"/>
    <g clip-path="url(#pf5f0204808)">
     <use xlink:href="#m639a980357" x="66.630227" y="237.763124" style="fill: #33a02c; stroke: #33a02c; stroke-linejoin: miter"/>
     <use xlink:href="#m639a980357" x="76.435059" y="229.505061" style="fill: #33a02c; stroke: #33a02c; stroke-linejoin: miter"/>
     <use xlink:href="#m639a980357" x="87.360443" y="220.915416" style="fill: #33a02c; stroke: #33a02c; stroke-linejoin: miter"/>
     <use xlink:href="#m639a980357" x="99.126242" y="213.971686" style="fill: #33a02c; stroke: #33a02c; stroke-linejoin: miter"/>
     <use xlink:href="#m639a980357" x="112.292731" y="204.550402" style="fill: #33a02c; stroke: #33a02c; stroke-linejoin: miter"/>
     <use xlink:href="#m639a980357" x="126.859909" y="191.835773" style="fill: #33a02c; stroke: #33a02c; stroke-linejoin: miter"/>
     <use xlink:href="#m639a980357" x="142.827779" y="179.883911" style="fill: #33a02c; stroke: #33a02c; stroke-linejoin: miter"/>
     <use xlink:href="#m639a980357" x="160.196338" y="165.013636" style="fill: #33a02c; stroke: #33a02c; stroke-linejoin: miter"/>
     <use xlink:href="#m639a980357" x="179.525864" y="151.86479" style="fill: #33a02c; stroke: #33a02c; stroke-linejoin: miter"/>
     <use xlink:href="#m639a980357" x="200.816356" y="134.570903" style="fill: #33a02c; stroke: #33a02c; stroke-linejoin: miter"/>
     <use xlink:href="#m639a980357" x="224.067815" y="118.920677" style="fill: #33a02c; stroke: #33a02c; stroke-linejoin: miter"/>
     <use xlink:href="#m639a980357" x="249.840516" y="100.006208" style="fill: #33a02c; stroke: #33a02c; stroke-linejoin: miter"/>
     <use xlink:href="#m639a980357" x="277.854322" y="80.106281" style="fill: #33a02c; stroke: #33a02c; stroke-linejoin: miter"/>
     <use xlink:href="#m639a980357" x="308.949646" y="55.520822" style="fill: #33a02c; stroke: #33a02c; stroke-linejoin: miter"/>
     <use xlink:href="#m639a980357" x="343.126489" y="32.362371" style="fill: #33a02c; stroke: #33a02c; stroke-linejoin: miter"/>
     <use xlink:href="#m639a980357" x="359.934773" y="17.074788" style="fill: #33a02c; stroke: #33a02c; stroke-linejoin: miter"/>
    </g>
   </g>
   <g id="patch_8">
    <path d="M 51.965 248.79754 
L 51.965 6.040371 
" style="fill: none; stroke: #000000; stroke-width: 1.2; stroke-linejoin: miter; stroke-linecap: square"/>
   </g>
   <g id="patch_9">
    <path d="M 374.6 248.79754 
L 374.6 6.040371 
" style="fill: none; stroke: #000000; stroke-width: 1.2; stroke-linejoin: miter; stroke-linecap: square"/>
   </g>
   <g id="patch_10">
    <path d="M 51.965 248.79754 
L 374.6 248.79754 
" style="fill: none; stroke: #000000; stroke-width: 1.2; stroke-linejoin: miter; stroke-linecap: square"/>
   </g>
   <g id="patch_11">
    <path d="M 51.965 6.040371 
L 374.6 6.040371 
" style="fill: none; stroke: #000000; stroke-width: 1.2; stroke-linejoin: miter; stroke-linecap: square"/>
   </g>
  </g>
 </g>
 <defs>
  <clipPath id="pf5f0204808">
   <rect x="51.965" y="6.040371" width="322.635" height="242.757169"/>
  </clipPath>
 </defs>
</svg>
