<?xml version="1.0" encoding="utf-8" standalone="no"?>
<!DOCTYPE svg PUBLIC "-//W3C//DTD SVG 1.1//EN"
  "http://www.w3.org/Graphics/SVG/1.1/DTD/svg11.dtd">
<svg xmlns:xlink="http://www.w3.org/1999/xlink" width="390.788693pt" height="304.230156pt" viewBox="0 0 390.788693 304.230156" xmlns="http://www.w3.org/2000/svg" version="1.1">
 <metadata>
  <rdf:RDF xmlns:dc="http://purl.org/dc/elements/1.1/" xmlns:cc="http://creativecommons.org/ns#" xmlns:rdf="http://www.w3.org/1999/02/22-rdf-syntax-ns#">
   <cc:Work>
    <dc:type rdf:resource="http://purl.org/dc/dcmitype/StillImage"/>
    <dc:date>2026-07-10T08:31:19.436802</dc:date>
    <dc:format>image/svg+xml</dc:format>
    <dc:creator>
     <cc:Agent>
      <dc:title>Matplotlib v3.10.8, https://matplotlib.org/</dc:title>
     </cc:Agent>
    </dc:creator>
   </cc:Work>
  </rdf:RDF>
 </metadata>
 <defs>
  <style type="text/css">*{stroke-linejoin: round; stroke-linecap: butt}</style>
 </defs>
 <g id="figure_1">
  <g id="patch_1">
   <path d="M 0 304.230156 
L 390.788693 304.230156 
L 390.788693 0 
L 0 0 
z
" style="fill: #ffffff"/>
  </g>
  <g id="axes_1">
   <g id="patch_2">
    <path d="M 51.861406 269.717812 
L 386.661406 269.717812 
L 386.661406 20.237812 
L 51.861406 20.237812 
z
" style="fill: #ffffff"/>
   </g>
   <g id="matplotlib.axis_1">
    <g id="xtick_1">
     <g id="line2d_1">
      <path d="M 80.742521 269.717812 
L 80.742521 20.237812 
" clip-path="url(#p2067b051ec)" style="fill: none; stroke-dasharray: 0.8,1.32; stroke-dashoffset: 0; stroke: #b0b0b0; stroke-opacity: 0.4; stroke-width: 0.8"/>
     </g>
     <g id="line2d_2">
      <defs>
       <path id="me1b92b2830" d="M 0 0 
L 0 -5 
" style="stroke: #000000; stroke-width: 0.8"/>
      </defs>
      <g>
       <use xlink:href="#me1b92b2830" x="80.742521" y="269.717812" style="stroke: #000000; stroke-width: 0.8"/>
      </g>
     </g>
     <g id="text_1">
      <!-- 400 -->
      <g transform="translate(70.244396 281.576094) scale(0.11 -0.11)">
       <defs>
        <path id="DejaVuSerif-34" d="M 2234 1581 
L 2234 4063 
L 641 1581 
L 2234 1581 
z
M 3609 0 
L 1484 0 
L 1484 331 
L 2234 331 
L 2234 1247 
L 197 1247 
L 197 1588 
L 2241 4750 
L 2859 4750 
L 2859 1581 
L 3750 1581 
L 3750 1247 
L 2859 1247 
L 2859 331 
L 3609 331 
L 3609 0 
z
" transform="scale(0.015625)"/>
        <path id="DejaVuSerif-30" d="M 2034 219 
Q 2513 219 2750 744 
Q 2988 1269 2988 2328 
Q 2988 3391 2750 3916 
Q 2513 4441 2034 4441 
Q 1556 4441 1318 3916 
Q 1081 3391 1081 2328 
Q 1081 1269 1318 744 
Q 1556 219 2034 219 
z
M 2034 -91 
Q 1275 -91 848 546 
Q 422 1184 422 2328 
Q 422 3475 848 4112 
Q 1275 4750 2034 4750 
Q 2797 4750 3222 4112 
Q 3647 3475 3647 2328 
Q 3647 1184 3222 546 
Q 2797 -91 2034 -91 
z
" transform="scale(0.015625)"/>
       </defs>
       <use xlink:href="#DejaVuSerif-34"/>
       <use xlink:href="#DejaVuSerif-30" transform="translate(63.623047 0)"/>
       <use xlink:href="#DejaVuSerif-30" transform="translate(127.246094 0)"/>
      </g>
     </g>
    </g>
    <g id="xtick_2">
     <g id="line2d_3">
      <path d="M 138.882662 269.717812 
L 138.882662 20.237812 
" clip-path="url(#p2067b051ec)" style="fill: none; stroke-dasharray: 0.8,1.32; stroke-dashoffset: 0; stroke: #b0b0b0; stroke-opacity: 0.4; stroke-width: 0.8"/>
     </g>
     <g id="line2d_4">
      <g>
       <use xlink:href="#me1b92b2830" x="138.882662" y="269.717812" style="stroke: #000000; stroke-width: 0.8"/>
      </g>
     </g>
     <g id="text_2">
      <!-- 600 -->
      <g transform="translate(128.384537 281.576094) scale(0.11 -0.11)">
       <defs>
        <path id="DejaVuSerif-36" d="M 2094 219 
Q 2534 219 2771 542 
Q 3009 866 3009 1472 
Q 3009 2078 2771 2401 
Q 2534 2725 2094 2725 
Q 1647 2725 1412 2412 
Q 1178 2100 1178 1509 
Q 1178 888 1415 553 
Q 1653 219 2094 219 
z
M 1075 2569 
Q 1288 2803 1556 2918 
Q 1825 3034 2163 3034 
Q 2859 3034 3264 2615 
Q 3669 2197 3669 1472 
Q 3669 763 3233 336 
Q 2797 -91 2069 -91 
Q 1278 -91 853 498 
Q 428 1088 428 2181 
Q 428 3406 931 4078 
Q 1434 4750 2350 4750 
Q 2597 4750 2869 4703 
Q 3141 4656 3425 4563 
L 3425 3794 
L 3072 3794 
Q 3034 4109 2831 4275 
Q 2628 4441 2284 4441 
Q 1678 4441 1381 3981 
Q 1084 3522 1075 2569 
z
" transform="scale(0.015625)"/>
       </defs>
       <use xlink:href="#DejaVuSerif-36"/>
       <use xlink:href="#DejaVuSerif-30" transform="translate(63.623047 0)"/>
       <use xlink:href="#DejaVuSerif-30" transform="translate(127.246094 0)"/>
      </g>
     </g>
    </g>
    <g id="xtick_3">
     <g id="line2d_5">
      <path d="M 197.022802 269.717812 
L 197.022802 20.237812 
" clip-path="url(#p2067b051ec)" style="fill: none; stroke-dasharray: 0.8,1.32; stroke-dashoffset: 0; stroke: #b0b0b0; stroke-opacity: 0.4; stroke-width: 0.8"/>
     </g>
     <g id="line2d_6">
      <g>
       <use xlink:href="#me1b92b2830" x="197.022802" y="269.717812" style="stroke: #000000; stroke-width: 0.8"/>
      </g>
     </g>
     <g id="text_3">
      <!-- 800 -->
      <g transform="translate(186.524677 281.576094) scale(0.11 -0.11)">
       <defs>
        <path id="DejaVuSerif-38" d="M 2981 1275 
Q 2981 1775 2732 2051 
Q 2484 2328 2034 2328 
Q 1584 2328 1336 2051 
Q 1088 1775 1088 1275 
Q 1088 772 1336 495 
Q 1584 219 2034 219 
Q 2484 219 2732 495 
Q 2981 772 2981 1275 
z
M 2853 3541 
Q 2853 3966 2637 4203 
Q 2422 4441 2034 4441 
Q 1650 4441 1433 4203 
Q 1216 3966 1216 3541 
Q 1216 3113 1433 2875 
Q 1650 2638 2034 2638 
Q 2422 2638 2637 2875 
Q 2853 3113 2853 3541 
z
M 2516 2484 
Q 3047 2413 3344 2092 
Q 3641 1772 3641 1275 
Q 3641 619 3225 264 
Q 2809 -91 2034 -91 
Q 1263 -91 845 264 
Q 428 619 428 1275 
Q 428 1772 725 2092 
Q 1022 2413 1556 2484 
Q 1084 2569 832 2842 
Q 581 3116 581 3541 
Q 581 4103 968 4426 
Q 1356 4750 2034 4750 
Q 2713 4750 3100 4426 
Q 3488 4103 3488 3541 
Q 3488 3116 3236 2842 
Q 2984 2569 2516 2484 
z
" transform="scale(0.015625)"/>
       </defs>
       <use xlink:href="#DejaVuSerif-38"/>
       <use xlink:href="#DejaVuSerif-30" transform="translate(63.623047 0)"/>
       <use xlink:href="#DejaVuSerif-30" transform="translate(127.246094 0)"/>
      </g>
     </g>
    </g>
    <g id="xtick_4">
     <g id="line2d_7">
      <path d="M 255.162943 269.717812 
L 255.162943 20.237812 
" clip-path="url(#p2067b051ec)" style="fill: none; stroke-dasharray: 0.8,1.32; stroke-dashoffset: 0; stroke: #b0b0b0; stroke-opacity: 0.4; stroke-width: 0.8"/>
     </g>
     <g id="line2d_8">
      <g>
       <use xlink:href="#me1b92b2830" x="255.162943" y="269.717812" style="stroke: #000000; stroke-width: 0.8"/>
      </g>
     </g>
     <g id="text_4">
      <!-- 1,000 -->
      <g transform="translate(239.417474 281.576094) scale(0.11 -0.11)">
       <defs>
        <path id="DejaVuSerif-31" d="M 909 0 
L 909 331 
L 1722 331 
L 1722 4213 
L 781 3603 
L 781 4013 
L 1919 4750 
L 2350 4750 
L 2350 331 
L 3163 331 
L 3163 0 
L 909 0 
z
" transform="scale(0.015625)"/>
        <path id="DejaVuSerif-2c" d="M 231 -622 
Q 525 -406 662 -114 
Q 800 178 800 594 
L 800 709 
L 1416 709 
Q 1391 175 1164 -208 
Q 938 -591 481 -872 
L 231 -622 
z
" transform="scale(0.015625)"/>
       </defs>
       <use xlink:href="#DejaVuSerif-31"/>
       <use xlink:href="#DejaVuSerif-2c" transform="translate(63.623047 0)"/>
       <use xlink:href="#DejaVuSerif-30" transform="translate(95.410156 0)"/>
       <use xlink:href="#DejaVuSerif-30" transform="translate(159.033203 0)"/>
       <use xlink:href="#DejaVuSerif-30" transform="translate(222.65625 0)"/>
      </g>
     </g>
    </g>
    <g id="xtick_5">
     <g id="line2d_9">
      <path d="M 313.303084 269.717812 
L 313.303084 20.237812 
" clip-path="url(#p2067b051ec)" style="fill: none; stroke-dasharray: 0.8,1.32; stroke-dashoffset: 0; stroke: #b0b0b0; stroke-opacity: 0.4; stroke-width: 0.8"/>
     </g>
     <g id="line2d_10">
      <g>
       <use xlink:href="#me1b92b2830" x="313.303084" y="269.717812" style="stroke: #000000; stroke-width: 0.8"/>
      </g>
     </g>
     <g id="text_5">
      <!-- 1,200 -->
      <g transform="translate(297.557615 281.576094) scale(0.11 -0.11)">
       <defs>
        <path id="DejaVuSerif-32" d="M 819 3553 
L 469 3553 
L 469 4384 
Q 803 4563 1142 4656 
Q 1481 4750 1806 4750 
Q 2534 4750 2956 4397 
Q 3378 4044 3378 3438 
Q 3378 2753 2422 1800 
Q 2347 1728 2309 1691 
L 1131 513 
L 3078 513 
L 3078 1088 
L 3444 1088 
L 3444 0 
L 434 0 
L 434 341 
L 1850 1753 
Q 2319 2222 2519 2614 
Q 2719 3006 2719 3438 
Q 2719 3909 2473 4175 
Q 2228 4441 1797 4441 
Q 1350 4441 1106 4219 
Q 863 3997 819 3553 
z
" transform="scale(0.015625)"/>
       </defs>
       <use xlink:href="#DejaVuSerif-31"/>
       <use xlink:href="#DejaVuSerif-2c" transform="translate(63.623047 0)"/>
       <use xlink:href="#DejaVuSerif-32" transform="translate(95.410156 0)"/>
       <use xlink:href="#DejaVuSerif-30" transform="translate(159.033203 0)"/>
       <use xlink:href="#DejaVuSerif-30" transform="translate(222.65625 0)"/>
      </g>
     </g>
    </g>
    <g id="xtick_6">
     <g id="line2d_11">
      <path d="M 371.443224 269.717812 
L 371.443224 20.237812 
" clip-path="url(#p2067b051ec)" style="fill: none; stroke-dasharray: 0.8,1.32; stroke-dashoffset: 0; stroke: #b0b0b0; stroke-opacity: 0.4; stroke-width: 0.8"/>
     </g>
     <g id="line2d_12">
      <g>
       <use xlink:href="#me1b92b2830" x="371.443224" y="269.717812" style="stroke: #000000; stroke-width: 0.8"/>
      </g>
     </g>
     <g id="text_6">
      <!-- 1,400 -->
      <g transform="translate(355.697756 281.576094) scale(0.11 -0.11)">
       <use xlink:href="#DejaVuSerif-31"/>
       <use xlink:href="#DejaVuSerif-2c" transform="translate(63.623047 0)"/>
       <use xlink:href="#DejaVuSerif-34" transform="translate(95.410156 0)"/>
       <use xlink:href="#DejaVuSerif-30" transform="translate(159.033203 0)"/>
       <use xlink:href="#DejaVuSerif-30" transform="translate(222.65625 0)"/>
      </g>
     </g>
    </g>
    <g id="text_7">
     <!-- Packet Size (Bytes) -->
     <g transform="translate(156.016406 297.741719) scale(0.13 -0.13)">
      <defs>
       <path id="DejaVuSerif-50" d="M 1581 2375 
L 2406 2375 
Q 2872 2375 3115 2626 
Q 3359 2878 3359 3353 
Q 3359 3831 3115 4081 
Q 2872 4331 2406 4331 
L 1581 4331 
L 1581 2375 
z
M 353 0 
L 353 331 
L 947 331 
L 947 4331 
L 353 4331 
L 353 4666 
L 2559 4666 
Q 3259 4666 3668 4311 
Q 4078 3956 4078 3353 
Q 4078 2753 3668 2397 
Q 3259 2041 2559 2041 
L 1581 2041 
L 1581 331 
L 2303 331 
L 2303 0 
L 353 0 
z
" transform="scale(0.015625)"/>
       <path id="DejaVuSerif-61" d="M 2547 1044 
L 2547 1747 
L 1806 1747 
Q 1378 1747 1168 1562 
Q 959 1378 959 997 
Q 959 650 1171 447 
Q 1384 244 1747 244 
Q 2106 244 2326 466 
Q 2547 688 2547 1044 
z
M 3122 2075 
L 3122 331 
L 3634 331 
L 3634 0 
L 2547 0 
L 2547 359 
Q 2356 128 2106 18 
Q 1856 -91 1522 -91 
Q 969 -91 644 203 
Q 319 497 319 997 
Q 319 1513 691 1797 
Q 1063 2081 1741 2081 
L 2547 2081 
L 2547 2309 
Q 2547 2688 2317 2895 
Q 2088 3103 1672 3103 
Q 1328 3103 1125 2947 
Q 922 2791 872 2484 
L 575 2484 
L 575 3156 
Q 875 3284 1158 3348 
Q 1441 3413 1709 3413 
Q 2400 3413 2761 3070 
Q 3122 2728 3122 2075 
z
" transform="scale(0.015625)"/>
       <path id="DejaVuSerif-63" d="M 3291 997 
Q 3169 466 2822 187 
Q 2475 -91 1925 -91 
Q 1200 -91 759 389 
Q 319 869 319 1663 
Q 319 2459 759 2936 
Q 1200 3413 1925 3413 
Q 2241 3413 2553 3339 
Q 2866 3266 3181 3116 
L 3181 2266 
L 2847 2266 
Q 2781 2703 2561 2903 
Q 2341 3103 1931 3103 
Q 1466 3103 1228 2742 
Q 991 2381 991 1663 
Q 991 944 1227 581 
Q 1463 219 1931 219 
Q 2303 219 2525 412 
Q 2747 606 2828 997 
L 3291 997 
z
" transform="scale(0.015625)"/>
       <path id="DejaVuSerif-6b" d="M 1831 0 
L 219 0 
L 219 331 
L 738 331 
L 738 4531 
L 184 4531 
L 184 4863 
L 1313 4863 
L 1313 1697 
L 2713 2988 
L 2234 2988 
L 2234 3322 
L 3738 3322 
L 3738 2988 
L 3169 2988 
L 2181 2075 
L 3444 331 
L 3922 331 
L 3922 0 
L 2284 0 
L 2284 331 
L 2759 331 
L 1766 1697 
L 1313 1275 
L 1313 331 
L 1831 331 
L 1831 0 
z
" transform="scale(0.015625)"/>
       <path id="DejaVuSerif-65" d="M 3469 1600 
L 991 1600 
L 991 1575 
Q 991 903 1244 561 
Q 1497 219 1991 219 
Q 2369 219 2611 417 
Q 2853 616 2950 1006 
L 3413 1006 
Q 3275 459 2904 184 
Q 2534 -91 1931 -91 
Q 1203 -91 761 389 
Q 319 869 319 1663 
Q 319 2450 753 2931 
Q 1188 3413 1894 3413 
Q 2647 3413 3050 2948 
Q 3453 2484 3469 1600 
z
M 2791 1931 
Q 2772 2513 2545 2808 
Q 2319 3103 1894 3103 
Q 1497 3103 1269 2806 
Q 1041 2509 991 1931 
L 2791 1931 
z
" transform="scale(0.015625)"/>
       <path id="DejaVuSerif-74" d="M 691 2988 
L 184 2988 
L 184 3322 
L 691 3322 
L 691 4353 
L 1269 4353 
L 1269 3322 
L 2350 3322 
L 2350 2988 
L 1269 2988 
L 1269 878 
Q 1269 456 1350 337 
Q 1431 219 1650 219 
Q 1875 219 1978 351 
Q 2081 484 2088 781 
L 2522 781 
Q 2497 328 2275 118 
Q 2053 -91 1600 -91 
Q 1103 -91 897 129 
Q 691 350 691 878 
L 691 2988 
z
" transform="scale(0.015625)"/>
       <path id="DejaVuSerif-20" transform="scale(0.015625)"/>
       <path id="DejaVuSerif-53" d="M 594 225 
L 594 1288 
L 953 1284 
Q 969 753 1261 498 
Q 1553 244 2150 244 
Q 2706 244 2998 464 
Q 3291 684 3291 1106 
Q 3291 1444 3114 1625 
Q 2938 1806 2369 1978 
L 1753 2163 
Q 1084 2366 811 2669 
Q 538 2972 538 3500 
Q 538 4094 959 4422 
Q 1381 4750 2144 4750 
Q 2469 4750 2856 4679 
Q 3244 4609 3681 4475 
L 3681 3481 
L 3328 3481 
Q 3275 3975 2998 4195 
Q 2722 4416 2156 4416 
Q 1663 4416 1405 4214 
Q 1147 4013 1147 3628 
Q 1147 3294 1340 3103 
Q 1534 2913 2163 2725 
L 2741 2553 
Q 3375 2363 3645 2067 
Q 3916 1772 3916 1275 
Q 3916 597 3481 253 
Q 3047 -91 2188 -91 
Q 1803 -91 1404 -12 
Q 1006 66 594 225 
z
" transform="scale(0.015625)"/>
       <path id="DejaVuSerif-69" d="M 622 4353 
Q 622 4497 726 4603 
Q 831 4709 978 4709 
Q 1122 4709 1226 4603 
Q 1331 4497 1331 4353 
Q 1331 4206 1228 4103 
Q 1125 4000 978 4000 
Q 831 4000 726 4103 
Q 622 4206 622 4353 
z
M 1356 331 
L 1900 331 
L 1900 0 
L 231 0 
L 231 331 
L 781 331 
L 781 2988 
L 231 2988 
L 231 3322 
L 1356 3322 
L 1356 331 
z
" transform="scale(0.015625)"/>
       <path id="DejaVuSerif-7a" d="M 256 0 
L 256 269 
L 2338 2988 
L 691 2988 
L 691 2413 
L 359 2413 
L 359 3322 
L 3078 3322 
L 3078 3053 
L 997 331 
L 2803 331 
L 2803 934 
L 3138 934 
L 3138 0 
L 256 0 
z
" transform="scale(0.015625)"/>
       <path id="DejaVuSerif-28" d="M 2041 -997 
Q 1281 -656 893 83 
Q 506 822 506 1931 
Q 506 3044 893 3783 
Q 1281 4522 2041 4863 
L 2041 4556 
Q 1559 4225 1350 3623 
Q 1141 3022 1141 1931 
Q 1141 844 1350 242 
Q 1559 -359 2041 -691 
L 2041 -997 
z
" transform="scale(0.015625)"/>
       <path id="DejaVuSerif-42" d="M 1581 331 
L 2516 331 
Q 3078 331 3337 575 
Q 3597 819 3597 1350 
Q 3597 1878 3339 2120 
Q 3081 2363 2516 2363 
L 1581 2363 
L 1581 331 
z
M 1581 2694 
L 2375 2694 
Q 2888 2694 3123 2891 
Q 3359 3088 3359 3513 
Q 3359 3941 3123 4136 
Q 2888 4331 2375 4331 
L 1581 4331 
L 1581 2694 
z
M 353 0 
L 353 331 
L 947 331 
L 947 4331 
L 353 4331 
L 353 4666 
L 2656 4666 
Q 3363 4666 3720 4377 
Q 4078 4088 4078 3513 
Q 4078 3097 3829 2850 
Q 3581 2603 3103 2547 
Q 3697 2472 4005 2167 
Q 4313 1863 4313 1350 
Q 4313 656 3875 328 
Q 3438 0 2509 0 
L 353 0 
z
" transform="scale(0.015625)"/>
       <path id="DejaVuSerif-79" d="M 1381 -609 
L 1600 -56 
L 359 2988 
L -19 2988 
L -19 3322 
L 1509 3322 
L 1509 2988 
L 978 2988 
L 1913 703 
L 2847 2988 
L 2350 2988 
L 2350 3322 
L 3597 3322 
L 3597 2988 
L 3225 2988 
L 1703 -750 
Q 1547 -1138 1356 -1280 
Q 1166 -1422 819 -1422 
Q 672 -1422 517 -1397 
Q 363 -1372 206 -1325 
L 206 -691 
L 500 -691 
Q 519 -903 608 -995 
Q 697 -1088 884 -1088 
Q 1056 -1088 1161 -992 
Q 1266 -897 1381 -609 
z
" transform="scale(0.015625)"/>
       <path id="DejaVuSerif-73" d="M 359 184 
L 359 959 
L 691 959 
Q 703 588 923 403 
Q 1144 219 1575 219 
Q 1963 219 2166 364 
Q 2369 509 2369 788 
Q 2369 1006 2220 1140 
Q 2072 1275 1594 1428 
L 1178 1569 
Q 750 1706 558 1912 
Q 366 2119 366 2438 
Q 366 2894 700 3153 
Q 1034 3413 1625 3413 
Q 1888 3413 2178 3344 
Q 2469 3275 2778 3144 
L 2778 2419 
L 2447 2419 
Q 2434 2741 2221 2922 
Q 2009 3103 1644 3103 
Q 1281 3103 1095 2975 
Q 909 2847 909 2591 
Q 909 2381 1050 2254 
Q 1191 2128 1613 1997 
L 2069 1856 
Q 2541 1709 2748 1489 
Q 2956 1269 2956 922 
Q 2956 450 2595 179 
Q 2234 -91 1600 -91 
Q 1278 -91 972 -22 
Q 666 47 359 184 
z
" transform="scale(0.015625)"/>
       <path id="DejaVuSerif-29" d="M 453 -997 
L 453 -691 
Q 934 -359 1145 242 
Q 1356 844 1356 1931 
Q 1356 3022 1145 3623 
Q 934 4225 453 4556 
L 453 4863 
Q 1216 4522 1603 3783 
Q 1991 3044 1991 1931 
Q 1991 822 1603 83 
Q 1216 -656 453 -997 
z
" transform="scale(0.015625)"/>
      </defs>
      <use xlink:href="#DejaVuSerif-50"/>
      <use xlink:href="#DejaVuSerif-61" transform="translate(62.785156 0)"/>
      <use xlink:href="#DejaVuSerif-63" transform="translate(122.404297 0)"/>
      <use xlink:href="#DejaVuSerif-6b" transform="translate(178.410156 0)"/>
      <use xlink:href="#DejaVuSerif-65" transform="translate(239.005859 0)"/>
      <use xlink:href="#DejaVuSerif-74" transform="translate(298.185547 0)"/>
      <use xlink:href="#DejaVuSerif-20" transform="translate(338.371094 0)"/>
      <use xlink:href="#DejaVuSerif-53" transform="translate(370.158203 0)"/>
      <use xlink:href="#DejaVuSerif-69" transform="translate(438.664062 0)"/>
      <use xlink:href="#DejaVuSerif-7a" transform="translate(470.646484 0)"/>
      <use xlink:href="#DejaVuSerif-65" transform="translate(523.332031 0)"/>
      <use xlink:href="#DejaVuSerif-20" transform="translate(582.511719 0)"/>
      <use xlink:href="#DejaVuSerif-28" transform="translate(614.298828 0)"/>
      <use xlink:href="#DejaVuSerif-42" transform="translate(653.3125 0)"/>
      <use xlink:href="#DejaVuSerif-79" transform="translate(726.798828 0)"/>
      <use xlink:href="#DejaVuSerif-74" transform="translate(783.292969 0)"/>
      <use xlink:href="#DejaVuSerif-65" transform="translate(823.478516 0)"/>
      <use xlink:href="#DejaVuSerif-73" transform="translate(882.658203 0)"/>
      <use xlink:href="#DejaVuSerif-29" transform="translate(933.976562 0)"/>
     </g>
    </g>
   </g>
   <g id="matplotlib.axis_2">
    <g id="ytick_1">
     <g id="line2d_13">
      <path d="M 51.861406 263.252252 
L 386.661406 263.252252 
" clip-path="url(#p2067b051ec)" style="fill: none; stroke-dasharray: 0.8,1.32; stroke-dashoffset: 0; stroke: #b0b0b0; stroke-opacity: 0.4; stroke-width: 0.8"/>
     </g>
     <g id="line2d_14">
      <defs>
       <path id="m86cc526ea5" d="M 0 0 
L 5 0 
" style="stroke: #000000; stroke-width: 0.8"/>
      </defs>
      <g>
       <use xlink:href="#m86cc526ea5" x="51.861406" y="263.252252" style="stroke: #000000; stroke-width: 0.8"/>
      </g>
     </g>
     <g id="text_8">
      <!-- 0 -->
      <g transform="translate(41.362656 267.431392) scale(0.11 -0.11)">
       <use xlink:href="#DejaVuSerif-30"/>
      </g>
     </g>
    </g>
    <g id="ytick_2">
     <g id="line2d_15">
      <path d="M 51.861406 215.007197 
L 386.661406 215.007197 
" clip-path="url(#p2067b051ec)" style="fill: none; stroke-dasharray: 0.8,1.32; stroke-dashoffset: 0; stroke: #b0b0b0; stroke-opacity: 0.4; stroke-width: 0.8"/>
     </g>
     <g id="line2d_16">
      <g>
       <use xlink:href="#m86cc526ea5" x="51.861406" y="215.007197" style="stroke: #000000; stroke-width: 0.8"/>
      </g>
     </g>
     <g id="text_9">
      <!-- 200 -->
      <g transform="translate(27.365156 219.186338) scale(0.11 -0.11)">
       <use xlink:href="#DejaVuSerif-32"/>
       <use xlink:href="#DejaVuSerif-30" transform="translate(63.623047 0)"/>
       <use xlink:href="#DejaVuSerif-30" transform="translate(127.246094 0)"/>
      </g>
     </g>
    </g>
    <g id="ytick_3">
     <g id="line2d_17">
      <path d="M 51.861406 166.762143 
L 386.661406 166.762143 
" clip-path="url(#p2067b051ec)" style="fill: none; stroke-dasharray: 0.8,1.32; stroke-dashoffset: 0; stroke: #b0b0b0; stroke-opacity: 0.4; stroke-width: 0.8"/>
     </g>
     <g id="line2d_18">
      <g>
       <use xlink:href="#m86cc526ea5" x="51.861406" y="166.762143" style="stroke: #000000; stroke-width: 0.8"/>
      </g>
     </g>
     <g id="text_10">
      <!-- 400 -->
      <g transform="translate(27.365156 170.941284) scale(0.11 -0.11)">
       <use xlink:href="#DejaVuSerif-34"/>
       <use xlink:href="#DejaVuSerif-30" transform="translate(63.623047 0)"/>
       <use xlink:href="#DejaVuSerif-30" transform="translate(127.246094 0)"/>
      </g>
     </g>
    </g>
    <g id="ytick_4">
     <g id="line2d_19">
      <path d="M 51.861406 118.517089 
L 386.661406 118.517089 
" clip-path="url(#p2067b051ec)" style="fill: none; stroke-dasharray: 0.8,1.32; stroke-dashoffset: 0; stroke: #b0b0b0; stroke-opacity: 0.4; stroke-width: 0.8"/>
     </g>
     <g id="line2d_20">
      <g>
       <use xlink:href="#m86cc526ea5" x="51.861406" y="118.517089" style="stroke: #000000; stroke-width: 0.8"/>
      </g>
     </g>
     <g id="text_11">
      <!-- 600 -->
      <g transform="translate(27.365156 122.696229) scale(0.11 -0.11)">
       <use xlink:href="#DejaVuSerif-36"/>
       <use xlink:href="#DejaVuSerif-30" transform="translate(63.623047 0)"/>
       <use xlink:href="#DejaVuSerif-30" transform="translate(127.246094 0)"/>
      </g>
     </g>
    </g>
    <g id="ytick_5">
     <g id="line2d_21">
      <path d="M 51.861406 70.272035 
L 386.661406 70.272035 
" clip-path="url(#p2067b051ec)" style="fill: none; stroke-dasharray: 0.8,1.32; stroke-dashoffset: 0; stroke: #b0b0b0; stroke-opacity: 0.4; stroke-width: 0.8"/>
     </g>
     <g id="line2d_22">
      <g>
       <use xlink:href="#m86cc526ea5" x="51.861406" y="70.272035" style="stroke: #000000; stroke-width: 0.8"/>
      </g>
     </g>
     <g id="text_12">
      <!-- 800 -->
      <g transform="translate(27.365156 74.451175) scale(0.11 -0.11)">
       <use xlink:href="#DejaVuSerif-38"/>
       <use xlink:href="#DejaVuSerif-30" transform="translate(63.623047 0)"/>
       <use xlink:href="#DejaVuSerif-30" transform="translate(127.246094 0)"/>
      </g>
     </g>
    </g>
    <g id="ytick_6">
     <g id="line2d_23">
      <path d="M 51.861406 22.02698 
L 386.661406 22.02698 
" clip-path="url(#p2067b051ec)" style="fill: none; stroke-dasharray: 0.8,1.32; stroke-dashoffset: 0; stroke: #b0b0b0; stroke-opacity: 0.4; stroke-width: 0.8"/>
     </g>
     <g id="line2d_24">
      <g>
       <use xlink:href="#m86cc526ea5" x="51.861406" y="22.02698" style="stroke: #000000; stroke-width: 0.8"/>
      </g>
     </g>
     <g id="text_13">
      <!-- 1000 -->
      <g transform="translate(20.366406 26.206121) scale(0.11 -0.11)">
       <use xlink:href="#DejaVuSerif-31"/>
       <use xlink:href="#DejaVuSerif-30" transform="translate(63.623047 0)"/>
       <use xlink:href="#DejaVuSerif-30" transform="translate(127.246094 0)"/>
       <use xlink:href="#DejaVuSerif-30" transform="translate(190.869141 0)"/>
      </g>
     </g>
    </g>
    <g id="text_14">
     <!-- Median Parse Latency (us) -->
     <g transform="translate(13.477969 232.969531) rotate(-90) scale(0.13 -0.13)">
      <defs>
       <path id="DejaVuSerif-4d" d="M 353 0 
L 353 331 
L 947 331 
L 947 4331 
L 319 4331 
L 319 4666 
L 1678 4666 
L 3316 1344 
L 4953 4666 
L 6228 4666 
L 6228 4331 
L 5606 4331 
L 5606 331 
L 6203 331 
L 6203 0 
L 4378 0 
L 4378 331 
L 4972 331 
L 4972 3938 
L 3372 684 
L 2931 684 
L 1331 3938 
L 1331 331 
L 1925 331 
L 1925 0 
L 353 0 
z
" transform="scale(0.015625)"/>
       <path id="DejaVuSerif-64" d="M 3359 331 
L 3909 331 
L 3909 0 
L 2784 0 
L 2784 519 
Q 2616 206 2355 57 
Q 2094 -91 1709 -91 
Q 1097 -91 708 395 
Q 319 881 319 1663 
Q 319 2444 706 2928 
Q 1094 3413 1709 3413 
Q 2094 3413 2355 3264 
Q 2616 3116 2784 2803 
L 2784 4531 
L 2241 4531 
L 2241 4863 
L 3359 4863 
L 3359 331 
z
M 2784 1497 
L 2784 1825 
Q 2784 2422 2554 2737 
Q 2325 3053 1888 3053 
Q 1444 3053 1217 2703 
Q 991 2353 991 1663 
Q 991 975 1217 622 
Q 1444 269 1888 269 
Q 2325 269 2554 583 
Q 2784 897 2784 1497 
z
" transform="scale(0.015625)"/>
       <path id="DejaVuSerif-6e" d="M 263 0 
L 263 331 
L 781 331 
L 781 2988 
L 231 2988 
L 231 3322 
L 1356 3322 
L 1356 2731 
Q 1516 3069 1770 3241 
Q 2025 3413 2363 3413 
Q 2913 3413 3172 3097 
Q 3431 2781 3431 2113 
L 3431 331 
L 3944 331 
L 3944 0 
L 2356 0 
L 2356 331 
L 2853 331 
L 2853 1931 
Q 2853 2541 2703 2767 
Q 2553 2994 2175 2994 
Q 1775 2994 1565 2701 
Q 1356 2409 1356 1850 
L 1356 331 
L 1856 331 
L 1856 0 
L 263 0 
z
" transform="scale(0.015625)"/>
       <path id="DejaVuSerif-72" d="M 3059 3328 
L 3059 2497 
L 2728 2497 
Q 2713 2744 2591 2866 
Q 2469 2988 2234 2988 
Q 1809 2988 1582 2694 
Q 1356 2400 1356 1850 
L 1356 331 
L 2022 331 
L 2022 0 
L 263 0 
L 263 331 
L 781 331 
L 781 2994 
L 231 2994 
L 231 3322 
L 1356 3322 
L 1356 2731 
Q 1525 3078 1790 3245 
Q 2056 3413 2438 3413 
Q 2578 3413 2733 3391 
Q 2888 3369 3059 3328 
z
" transform="scale(0.015625)"/>
       <path id="DejaVuSerif-4c" d="M 353 0 
L 353 331 
L 947 331 
L 947 4331 
L 353 4331 
L 353 4666 
L 2175 4666 
L 2175 4331 
L 1581 4331 
L 1581 384 
L 3713 384 
L 3713 1166 
L 4097 1166 
L 4097 0 
L 353 0 
z
" transform="scale(0.015625)"/>
       <path id="DejaVuSerif-75" d="M 2266 3322 
L 3341 3322 
L 3341 331 
L 3884 331 
L 3884 0 
L 2766 0 
L 2766 588 
Q 2606 256 2353 82 
Q 2100 -91 1766 -91 
Q 1213 -91 952 223 
Q 691 538 691 1209 
L 691 2988 
L 172 2988 
L 172 3322 
L 1269 3322 
L 1269 1388 
Q 1269 781 1417 556 
Q 1566 331 1947 331 
Q 2347 331 2556 625 
Q 2766 919 2766 1478 
L 2766 2988 
L 2266 2988 
L 2266 3322 
z
" transform="scale(0.015625)"/>
      </defs>
      <use xlink:href="#DejaVuSerif-4d"/>
      <use xlink:href="#DejaVuSerif-65" transform="translate(102.392578 0)"/>
      <use xlink:href="#DejaVuSerif-64" transform="translate(161.572266 0)"/>
      <use xlink:href="#DejaVuSerif-69" transform="translate(225.585938 0)"/>
      <use xlink:href="#DejaVuSerif-61" transform="translate(257.568359 0)"/>
      <use xlink:href="#DejaVuSerif-6e" transform="translate(317.1875 0)"/>
      <use xlink:href="#DejaVuSerif-20" transform="translate(381.591797 0)"/>
      <use xlink:href="#DejaVuSerif-50" transform="translate(413.378906 0)"/>
      <use xlink:href="#DejaVuSerif-61" transform="translate(476.164062 0)"/>
      <use xlink:href="#DejaVuSerif-72" transform="translate(535.783203 0)"/>
      <use xlink:href="#DejaVuSerif-73" transform="translate(583.585938 0)"/>
      <use xlink:href="#DejaVuSerif-65" transform="translate(634.904297 0)"/>
      <use xlink:href="#DejaVuSerif-20" transform="translate(694.083984 0)"/>
      <use xlink:href="#DejaVuSerif-4c" transform="translate(725.871094 0)"/>
      <use xlink:href="#DejaVuSerif-61" transform="translate(792.277344 0)"/>
      <use xlink:href="#DejaVuSerif-74" transform="translate(851.896484 0)"/>
      <use xlink:href="#DejaVuSerif-65" transform="translate(892.082031 0)"/>
      <use xlink:href="#DejaVuSerif-6e" transform="translate(951.261719 0)"/>
      <use xlink:href="#DejaVuSerif-63" transform="translate(1015.666016 0)"/>
      <use xlink:href="#DejaVuSerif-79" transform="translate(1071.671875 0)"/>
      <use xlink:href="#DejaVuSerif-20" transform="translate(1128.166016 0)"/>
      <use xlink:href="#DejaVuSerif-28" transform="translate(1159.953125 0)"/>
      <use xlink:href="#DejaVuSerif-75" transform="translate(1198.966797 0)"/>
      <use xlink:href="#DejaVuSerif-73" transform="translate(1263.371094 0)"/>
      <use xlink:href="#DejaVuSerif-29" transform="translate(1314.689453 0)"/>
     </g>
    </g>
   </g>
   <g id="line2d_25">
    <path d="M 67.079588 209.349982 
L 67.079588 209.349982 
L 67.079588 209.349982 
L 77.254113 203.017336 
L 77.254113 203.017336 
L 77.254113 203.017336 
L 88.59144 195.447446 
L 88.59144 195.447446 
L 100.80087 189.357232 
L 100.80087 189.357232 
L 100.80087 189.357232 
L 114.463803 181.919533 
L 114.463803 181.919533 
L 114.463803 181.919533 
L 129.580239 172.306223 
L 129.580239 172.306223 
L 129.580239 172.306223 
L 146.150179 162.978042 
L 146.150179 162.978042 
L 146.150179 162.978042 
L 164.173623 151.861899 
L 164.173623 151.861899 
L 164.173623 151.861899 
L 184.231972 140.017738 
L 184.231972 140.017738 
L 184.231972 140.017738 
L 206.325225 127.311439 
L 206.325225 127.311439 
L 206.325225 127.311439 
L 230.453383 113.831047 
L 230.453383 113.831047 
L 230.453383 113.831047 
L 257.197848 98.17818 
L 257.197848 98.17818 
L 257.197848 98.17818 
L 286.267918 80.760509 
L 286.267918 80.760509 
L 286.267918 80.760509 
L 318.535696 61.673077 
L 318.535696 61.673077 
L 354.001182 41.961354 
L 354.001182 41.961354 
L 354.001182 41.961354 
L 371.443224 31.577812 
L 371.443224 31.577812 
L 371.443224 31.577812 
" clip-path="url(#p2067b051ec)" style="fill: none; stroke: #a51c30; stroke-width: 2.5; stroke-linecap: square"/>
    <defs>
     <path id="m9a35db5985" d="M 0 4 
C 1.060812 4 2.078319 3.578535 2.828427 2.828427 
C 3.578535 2.078319 4 1.060812 4 0 
C 4 -1.060812 3.578535 -2.078319 2.828427 -2.828427 
C 2.078319 -3.578535 1.060812 -4 0 -4 
C -1.060812 -4 -2.078319 -3.578535 -2.828427 -2.828427 
C -3.578535 -2.078319 -4 -1.060812 -4 0 
C -4 1.060812 -3.578535 2.078319 -2.828427 2.828427 
C -2.078319 3.578535 -1.060812 4 0 4 
z
" style="stroke: #a51c30"/>
    </defs>
    <g clip-path="url(#p2067b051ec)">
     <use xlink:href="#m9a35db5985" x="67.079588" y="209.349982" style="fill: #a51c30; stroke: #a51c30"/>
     <use xlink:href="#m9a35db5985" x="67.079588" y="209.349982" style="fill: #a51c30; stroke: #a51c30"/>
     <use xlink:href="#m9a35db5985" x="67.079588" y="209.349982" style="fill: #a51c30; stroke: #a51c30"/>
     <use xlink:href="#m9a35db5985" x="77.254113" y="203.017336" style="fill: #a51c30; stroke: #a51c30"/>
     <use xlink:href="#m9a35db5985" x="77.254113" y="203.017336" style="fill: #a51c30; stroke: #a51c30"/>
     <use xlink:href="#m9a35db5985" x="77.254113" y="203.017336" style="fill: #a51c30; stroke: #a51c30"/>
     <use xlink:href="#m9a35db5985" x="88.59144" y="195.447446" style="fill: #a51c30; stroke: #a51c30"/>
     <use xlink:href="#m9a35db5985" x="88.59144" y="195.447446" style="fill: #a51c30; stroke: #a51c30"/>
     <use xlink:href="#m9a35db5985" x="100.80087" y="189.357232" style="fill: #a51c30; stroke: #a51c30"/>
     <use xlink:href="#m9a35db5985" x="100.80087" y="189.357232" style="fill: #a51c30; stroke: #a51c30"/>
     <use xlink:href="#m9a35db5985" x="100.80087" y="189.357232" style="fill: #a51c30; stroke: #a51c30"/>
     <use xlink:href="#m9a35db5985" x="114.463803" y="181.919533" style="fill: #a51c30; stroke: #a51c30"/>
     <use xlink:href="#m9a35db5985" x="114.463803" y="181.919533" style="fill: #a51c30; stroke: #a51c30"/>
     <use xlink:href="#m9a35db5985" x="114.463803" y="181.919533" style="fill: #a51c30; stroke: #a51c30"/>
     <use xlink:href="#m9a35db5985" x="129.580239" y="172.306223" style="fill: #a51c30; stroke: #a51c30"/>
     <use xlink:href="#m9a35db5985" x="129.580239" y="172.306223" style="fill: #a51c30; stroke: #a51c30"/>
     <use xlink:href="#m9a35db5985" x="129.580239" y="172.306223" style="fill: #a51c30; stroke: #a51c30"/>
     <use xlink:href="#m9a35db5985" x="146.150179" y="162.978042" style="fill: #a51c30; stroke: #a51c30"/>
     <use xlink:href="#m9a35db5985" x="146.150179" y="162.978042" style="fill: #a51c30; stroke: #a51c30"/>
     <use xlink:href="#m9a35db5985" x="146.150179" y="162.978042" style="fill: #a51c30; stroke: #a51c30"/>
     <use xlink:href="#m9a35db5985" x="164.173623" y="151.861899" style="fill: #a51c30; stroke: #a51c30"/>
     <use xlink:href="#m9a35db5985" x="164.173623" y="151.861899" style="fill: #a51c30; stroke: #a51c30"/>
     <use xlink:href="#m9a35db5985" x="164.173623" y="151.861899" style="fill: #a51c30; stroke: #a51c30"/>
     <use xlink:href="#m9a35db5985" x="184.231972" y="140.017738" style="fill: #a51c30; stroke: #a51c30"/>
     <use xlink:href="#m9a35db5985" x="184.231972" y="140.017738" style="fill: #a51c30; stroke: #a51c30"/>
     <use xlink:href="#m9a35db5985" x="184.231972" y="140.017738" style="fill: #a51c30; stroke: #a51c30"/>
     <use xlink:href="#m9a35db5985" x="206.325225" y="127.311439" style="fill: #a51c30; stroke: #a51c30"/>
     <use xlink:href="#m9a35db5985" x="206.325225" y="127.311439" style="fill: #a51c30; stroke: #a51c30"/>
     <use xlink:href="#m9a35db5985" x="206.325225" y="127.311439" style="fill: #a51c30; stroke: #a51c30"/>
     <use xlink:href="#m9a35db5985" x="230.453383" y="113.831047" style="fill: #a51c30; stroke: #a51c30"/>
     <use xlink:href="#m9a35db5985" x="230.453383" y="113.831047" style="fill: #a51c30; stroke: #a51c30"/>
     <use xlink:href="#m9a35db5985" x="230.453383" y="113.831047" style="fill: #a51c30; stroke: #a51c30"/>
     <use xlink:href="#m9a35db5985" x="257.197848" y="98.17818" style="fill: #a51c30; stroke: #a51c30"/>
     <use xlink:href="#m9a35db5985" x="257.197848" y="98.17818" style="fill: #a51c30; stroke: #a51c30"/>
     <use xlink:href="#m9a35db5985" x="257.197848" y="98.17818" style="fill: #a51c30; stroke: #a51c30"/>
     <use xlink:href="#m9a35db5985" x="286.267918" y="80.760509" style="fill: #a51c30; stroke: #a51c30"/>
     <use xlink:href="#m9a35db5985" x="286.267918" y="80.760509" style="fill: #a51c30; stroke: #a51c30"/>
     <use xlink:href="#m9a35db5985" x="286.267918" y="80.760509" style="fill: #a51c30; stroke: #a51c30"/>
     <use xlink:href="#m9a35db5985" x="318.535696" y="61.673077" style="fill: #a51c30; stroke: #a51c30"/>
     <use xlink:href="#m9a35db5985" x="318.535696" y="61.673077" style="fill: #a51c30; stroke: #a51c30"/>
     <use xlink:href="#m9a35db5985" x="354.001182" y="41.961354" style="fill: #a51c30; stroke: #a51c30"/>
     <use xlink:href="#m9a35db5985" x="354.001182" y="41.961354" style="fill: #a51c30; stroke: #a51c30"/>
     <use xlink:href="#m9a35db5985" x="354.001182" y="41.961354" style="fill: #a51c30; stroke: #a51c30"/>
     <use xlink:href="#m9a35db5985" x="371.443224" y="31.577812" style="fill: #a51c30; stroke: #a51c30"/>
     <use xlink:href="#m9a35db5985" x="371.443224" y="31.577812" style="fill: #a51c30; stroke: #a51c30"/>
     <use xlink:href="#m9a35db5985" x="371.443224" y="31.577812" style="fill: #a51c30; stroke: #a51c30"/>
    </g>
   </g>
   <g id="line2d_26">
    <path d="M 67.079588 258.377812 
L 67.079588 258.356585 
L 67.079588 258.239108 
L 77.254113 258.358756 
L 77.254113 258.310752 
L 77.254113 258.267814 
L 88.59144 258.261542 
L 88.59144 258.197376 
L 100.80087 258.124767 
L 100.80087 258.145754 
L 100.80087 258.25527 
L 114.463803 258.221499 
L 114.463803 258.111741 
L 114.463803 258.161192 
L 129.580239 258.203407 
L 129.580239 258.168429 
L 129.580239 258.159262 
L 146.150179 258.118495 
L 146.150179 258.214503 
L 146.150179 258.181696 
L 164.173623 258.169876 
L 164.173623 258.16867 
L 164.173623 258.226323 
L 184.231972 258.129109 
L 184.231972 258.112706 
L 184.231972 258.10764 
L 206.325225 258.086895 
L 206.325225 258.224876 
L 206.325225 258.127179 
L 230.453383 258.138758 
L 230.453383 258.084724 
L 230.453383 258.077487 
L 257.197848 258.012839 
L 257.197848 258.122596 
L 257.197848 258.086412 
L 286.267918 258.035514 
L 286.267918 257.981962 
L 286.267918 258.053606 
L 318.535696 258.043474 
L 318.535696 258.027312 
L 354.001182 258.021523 
L 354.001182 257.988475 
L 354.001182 258.000295 
L 371.443224 258.076281 
L 371.443224 258.035755 
L 371.443224 258.020558 
" clip-path="url(#p2067b051ec)" style="fill: none; stroke-dasharray: 9.25,4; stroke-dashoffset: 0; stroke: #003366; stroke-width: 2.5"/>
    <defs>
     <path id="meab95416bf" d="M -4 4 
L 4 4 
L 4 -4 
L -4 -4 
z
" style="stroke: #003366; stroke-linejoin: miter"/>
    </defs>
    <g clip-path="url(#p2067b051ec)">
     <use xlink:href="#meab95416bf" x="67.079588" y="258.377812" style="fill: #003366; stroke: #003366; stroke-linejoin: miter"/>
     <use xlink:href="#meab95416bf" x="67.079588" y="258.356585" style="fill: #003366; stroke: #003366; stroke-linejoin: miter"/>
     <use xlink:href="#meab95416bf" x="67.079588" y="258.239108" style="fill: #003366; stroke: #003366; stroke-linejoin: miter"/>
     <use xlink:href="#meab95416bf" x="77.254113" y="258.358756" style="fill: #003366; stroke: #003366; stroke-linejoin: miter"/>
     <use xlink:href="#meab95416bf" x="77.254113" y="258.310752" style="fill: #003366; stroke: #003366; stroke-linejoin: miter"/>
     <use xlink:href="#meab95416bf" x="77.254113" y="258.267814" style="fill: #003366; stroke: #003366; stroke-linejoin: miter"/>
     <use xlink:href="#meab95416bf" x="88.59144" y="258.261542" style="fill: #003366; stroke: #003366; stroke-linejoin: miter"/>
     <use xlink:href="#meab95416bf" x="88.59144" y="258.197376" style="fill: #003366; stroke: #003366; stroke-linejoin: miter"/>
     <use xlink:href="#meab95416bf" x="100.80087" y="258.124767" style="fill: #003366; stroke: #003366; stroke-linejoin: miter"/>
     <use xlink:href="#meab95416bf" x="100.80087" y="258.145754" style="fill: #003366; stroke: #003366; stroke-linejoin: miter"/>
     <use xlink:href="#meab95416bf" x="100.80087" y="258.25527" style="fill: #003366; stroke: #003366; stroke-linejoin: miter"/>
     <use xlink:href="#meab95416bf" x="114.463803" y="258.221499" style="fill: #003366; stroke: #003366; stroke-linejoin: miter"/>
     <use xlink:href="#meab95416bf" x="114.463803" y="258.111741" style="fill: #003366; stroke: #003366; stroke-linejoin: miter"/>
     <use xlink:href="#meab95416bf" x="114.463803" y="258.161192" style="fill: #003366; stroke: #003366; stroke-linejoin: miter"/>
     <use xlink:href="#meab95416bf" x="129.580239" y="258.203407" style="fill: #003366; stroke: #003366; stroke-linejoin: miter"/>
     <use xlink:href="#meab95416bf" x="129.580239" y="258.168429" style="fill: #003366; stroke: #003366; stroke-linejoin: miter"/>
     <use xlink:href="#meab95416bf" x="129.580239" y="258.159262" style="fill: #003366; stroke: #003366; stroke-linejoin: miter"/>
     <use xlink:href="#meab95416bf" x="146.150179" y="258.118495" style="fill: #003366; stroke: #003366; stroke-linejoin: miter"/>
     <use xlink:href="#meab95416bf" x="146.150179" y="258.214503" style="fill: #003366; stroke: #003366; stroke-linejoin: miter"/>
     <use xlink:href="#meab95416bf" x="146.150179" y="258.181696" style="fill: #003366; stroke: #003366; stroke-linejoin: miter"/>
     <use xlink:href="#meab95416bf" x="164.173623" y="258.169876" style="fill: #003366; stroke: #003366; stroke-linejoin: miter"/>
     <use xlink:href="#meab95416bf" x="164.173623" y="258.16867" style="fill: #003366; stroke: #003366; stroke-linejoin: miter"/>
     <use xlink:href="#meab95416bf" x="164.173623" y="258.226323" style="fill: #003366; stroke: #003366; stroke-linejoin: miter"/>
     <use xlink:href="#meab95416bf" x="184.231972" y="258.129109" style="fill: #003366; stroke: #003366; stroke-linejoin: miter"/>
     <use xlink:href="#meab95416bf" x="184.231972" y="258.112706" style="fill: #003366; stroke: #003366; stroke-linejoin: miter"/>
     <use xlink:href="#meab95416bf" x="184.231972" y="258.10764" style="fill: #003366; stroke: #003366; stroke-linejoin: miter"/>
     <use xlink:href="#meab95416bf" x="206.325225" y="258.086895" style="fill: #003366; stroke: #003366; stroke-linejoin: miter"/>
     <use xlink:href="#meab95416bf" x="206.325225" y="258.224876" style="fill: #003366; stroke: #003366; stroke-linejoin: miter"/>
     <use xlink:href="#meab95416bf" x="206.325225" y="258.127179" style="fill: #003366; stroke: #003366; stroke-linejoin: miter"/>
     <use xlink:href="#meab95416bf" x="230.453383" y="258.138758" style="fill: #003366; stroke: #003366; stroke-linejoin: miter"/>
     <use xlink:href="#meab95416bf" x="230.453383" y="258.084724" style="fill: #003366; stroke: #003366; stroke-linejoin: miter"/>
     <use xlink:href="#meab95416bf" x="230.453383" y="258.077487" style="fill: #003366; stroke: #003366; stroke-linejoin: miter"/>
     <use xlink:href="#meab95416bf" x="257.197848" y="258.012839" style="fill: #003366; stroke: #003366; stroke-linejoin: miter"/>
     <use xlink:href="#meab95416bf" x="257.197848" y="258.122596" style="fill: #003366; stroke: #003366; stroke-linejoin: miter"/>
     <use xlink:href="#meab95416bf" x="257.197848" y="258.086412" style="fill: #003366; stroke: #003366; stroke-linejoin: miter"/>
     <use xlink:href="#meab95416bf" x="286.267918" y="258.035514" style="fill: #003366; stroke: #003366; stroke-linejoin: miter"/>
     <use xlink:href="#meab95416bf" x="286.267918" y="257.981962" style="fill: #003366; stroke: #003366; stroke-linejoin: miter"/>
     <use xlink:href="#meab95416bf" x="286.267918" y="258.053606" style="fill: #003366; stroke: #003366; stroke-linejoin: miter"/>
     <use xlink:href="#meab95416bf" x="318.535696" y="258.043474" style="fill: #003366; stroke: #003366; stroke-linejoin: miter"/>
     <use xlink:href="#meab95416bf" x="318.535696" y="258.027312" style="fill: #003366; stroke: #003366; stroke-linejoin: miter"/>
     <use xlink:href="#meab95416bf" x="354.001182" y="258.021523" style="fill: #003366; stroke: #003366; stroke-linejoin: miter"/>
     <use xlink:href="#meab95416bf" x="354.001182" y="257.988475" style="fill: #003366; stroke: #003366; stroke-linejoin: miter"/>
     <use xlink:href="#meab95416bf" x="354.001182" y="258.000295" style="fill: #003366; stroke: #003366; stroke-linejoin: miter"/>
     <use xlink:href="#meab95416bf" x="371.443224" y="258.076281" style="fill: #003366; stroke: #003366; stroke-linejoin: miter"/>
     <use xlink:href="#meab95416bf" x="371.443224" y="258.035755" style="fill: #003366; stroke: #003366; stroke-linejoin: miter"/>
     <use xlink:href="#meab95416bf" x="371.443224" y="258.020558" style="fill: #003366; stroke: #003366; stroke-linejoin: miter"/>
    </g>
   </g>
   <g id="patch_3">
    <path d="M 51.861406 269.717812 
L 51.861406 20.237812 
" style="fill: none; stroke: #000000; stroke-width: 1.2; stroke-linejoin: miter; stroke-linecap: square"/>
   </g>
   <g id="patch_4">
    <path d="M 386.661406 269.717812 
L 386.661406 20.237812 
" style="fill: none; stroke: #000000; stroke-width: 1.2; stroke-linejoin: miter; stroke-linecap: square"/>
   </g>
   <g id="patch_5">
    <path d="M 51.861406 269.717812 
L 386.661406 269.717812 
" style="fill: none; stroke: #000000; stroke-width: 1.2; stroke-linejoin: miter; stroke-linecap: square"/>
   </g>
   <g id="patch_6">
    <path d="M 51.861406 20.237812 
L 386.661406 20.237812 
" style="fill: none; stroke: #000000; stroke-width: 1.2; stroke-linejoin: miter; stroke-linecap: square"/>
   </g>
   <g id="text_15">
    <!-- Parse Latency vs. Packet Size -->
    <g transform="translate(104.248125 14.237812) scale(0.14 -0.14)">
     <defs>
      <path id="DejaVuSerif-Bold-50" d="M 300 0 
L 300 378 
L 897 378 
L 897 4288 
L 300 4288 
L 300 4666 
L 2956 4666 
Q 3734 4666 4193 4295 
Q 4653 3925 4653 3303 
Q 4653 2678 4192 2304 
Q 3731 1931 2956 1931 
L 2100 1931 
L 2100 378 
L 2853 378 
L 2853 0 
L 300 0 
z
M 2100 2309 
L 2450 2309 
Q 2856 2309 3098 2579 
Q 3341 2850 3341 3303 
Q 3341 3753 3100 4020 
Q 2859 4288 2450 4288 
L 2100 4288 
L 2100 2309 
z
" transform="scale(0.015625)"/>
      <path id="DejaVuSerif-Bold-61" d="M 3525 2041 
L 3525 378 
L 4000 378 
L 4000 0 
L 2419 0 
L 2419 422 
Q 2200 159 1931 34 
Q 1663 -91 1319 -91 
Q 809 -91 536 182 
Q 263 456 263 966 
Q 263 1525 655 1803 
Q 1047 2081 1838 2081 
L 2419 2081 
L 2419 2278 
Q 2419 2681 2228 2873 
Q 2038 3066 1638 3066 
Q 1306 3066 1126 2930 
Q 947 2794 872 2484 
L 519 2484 
L 519 3200 
Q 816 3306 1134 3359 
Q 1453 3413 1806 3413 
Q 2697 3413 3111 3081 
Q 3525 2750 3525 2041 
z
M 2419 1044 
L 2419 1709 
L 2003 1709 
Q 1694 1709 1528 1540 
Q 1363 1372 1363 1056 
Q 1363 741 1483 584 
Q 1603 428 1850 428 
Q 2106 428 2262 597 
Q 2419 766 2419 1044 
z
" transform="scale(0.015625)"/>
      <path id="DejaVuSerif-Bold-72" d="M 3438 3359 
L 3438 2369 
L 3084 2369 
Q 3066 2634 2941 2764 
Q 2816 2894 2578 2894 
Q 2216 2894 2006 2575 
Q 1797 2256 1797 1691 
L 1797 378 
L 2400 378 
L 2400 0 
L 219 0 
L 219 378 
L 691 378 
L 691 2944 
L 184 2944 
L 184 3322 
L 1797 3322 
L 1797 2731 
Q 1959 3078 2226 3245 
Q 2494 3413 2881 3413 
Q 2978 3413 3117 3398 
Q 3256 3384 3438 3359 
z
" transform="scale(0.015625)"/>
      <path id="DejaVuSerif-Bold-73" d="M 300 97 
L 300 1025 
L 653 1025 
Q 697 653 931 458 
Q 1166 263 1569 263 
Q 1906 263 2086 380 
Q 2266 497 2266 716 
Q 2266 916 2152 1025 
Q 2038 1134 1709 1216 
L 1253 1331 
Q 738 1459 506 1698 
Q 275 1938 275 2344 
Q 275 2884 650 3148 
Q 1025 3413 1806 3413 
Q 2100 3413 2433 3364 
Q 2766 3316 3169 3213 
L 3169 2375 
L 2816 2375 
Q 2788 2716 2573 2887 
Q 2359 3059 1959 3059 
Q 1622 3059 1448 2951 
Q 1275 2844 1275 2638 
Q 1275 2469 1375 2372 
Q 1475 2275 1734 2209 
L 2188 2094 
Q 2841 1928 3091 1684 
Q 3341 1441 3341 1006 
Q 3341 444 2939 176 
Q 2538 -91 1691 -91 
Q 1381 -91 1034 -44 
Q 688 3 300 97 
z
" transform="scale(0.015625)"/>
      <path id="DejaVuSerif-Bold-65" d="M 2566 1875 
Q 2566 2531 2444 2795 
Q 2322 3059 2028 3059 
Q 1744 3059 1620 2800 
Q 1497 2541 1497 1931 
L 1497 1875 
L 2566 1875 
z
M 3781 1503 
L 1497 1503 
L 1497 1478 
Q 1497 834 1690 548 
Q 1884 263 2316 263 
Q 2675 263 2897 453 
Q 3119 644 3181 1006 
L 3700 1006 
Q 3566 441 3166 175 
Q 2766 -91 2047 -91 
Q 1184 -91 723 364 
Q 263 819 263 1663 
Q 263 2488 734 2950 
Q 1206 3413 2047 3413 
Q 2872 3413 3312 2927 
Q 3753 2441 3781 1503 
z
" transform="scale(0.015625)"/>
      <path id="DejaVuSerif-Bold-20" transform="scale(0.015625)"/>
      <path id="DejaVuSerif-Bold-4c" d="M 300 0 
L 300 378 
L 897 378 
L 897 4288 
L 300 4288 
L 300 4666 
L 2700 4666 
L 2700 4288 
L 2100 4288 
L 2100 428 
L 3938 428 
L 3938 1166 
L 4359 1166 
L 4359 0 
L 300 0 
z
" transform="scale(0.015625)"/>
      <path id="DejaVuSerif-Bold-74" d="M 634 2944 
L 153 2944 
L 153 3322 
L 634 3322 
L 634 4353 
L 1741 4353 
L 1741 3322 
L 2663 3322 
L 2663 2944 
L 1741 2944 
L 1741 909 
Q 1741 475 1809 369 
Q 1878 263 2059 263 
Q 2259 263 2356 397 
Q 2453 531 2459 813 
L 2925 813 
Q 2897 313 2651 111 
Q 2406 -91 1806 -91 
Q 1122 -91 878 123 
Q 634 338 634 909 
L 634 2944 
z
" transform="scale(0.015625)"/>
      <path id="DejaVuSerif-Bold-6e" d="M 219 0 
L 219 378 
L 691 378 
L 691 2944 
L 219 2944 
L 219 3322 
L 1797 3322 
L 1797 2853 
Q 1997 3150 2253 3281 
Q 2509 3413 2900 3413 
Q 3459 3413 3745 3083 
Q 4031 2753 4031 2113 
L 4031 378 
L 4506 378 
L 4506 0 
L 2522 0 
L 2522 378 
L 2925 378 
L 2925 2144 
Q 2925 2566 2817 2730 
Q 2709 2894 2444 2894 
Q 2109 2894 1953 2648 
Q 1797 2403 1797 1869 
L 1797 378 
L 2203 378 
L 2203 0 
L 219 0 
z
" transform="scale(0.015625)"/>
      <path id="DejaVuSerif-Bold-63" d="M 3609 1038 
Q 3491 469 3123 189 
Q 2756 -91 2125 -91 
Q 1238 -91 750 368 
Q 263 828 263 1663 
Q 263 2488 744 2950 
Q 1225 3413 2081 3413 
Q 2428 3413 2781 3347 
Q 3134 3281 3500 3150 
L 3500 2228 
L 3150 2228 
Q 3100 2650 2903 2854 
Q 2706 3059 2350 3059 
Q 1888 3059 1692 2746 
Q 1497 2434 1497 1663 
Q 1497 909 1687 586 
Q 1878 263 2309 263 
Q 2644 263 2845 463 
Q 3047 663 3091 1038 
L 3609 1038 
z
" transform="scale(0.015625)"/>
      <path id="DejaVuSerif-Bold-79" d="M 1997 -750 
Q 1847 -1116 1634 -1269 
Q 1422 -1422 1063 -1422 
Q 909 -1422 721 -1387 
Q 534 -1353 313 -1288 
L 313 -594 
L 666 -597 
Q 675 -838 779 -953 
Q 884 -1069 1094 -1069 
Q 1297 -1069 1422 -958 
Q 1547 -847 1672 -538 
L 1722 -422 
L 275 2944 
L -84 2944 
L -84 3322 
L 1831 3322 
L 1831 2944 
L 1434 2944 
L 2278 978 
L 3066 2944 
L 2625 2944 
L 2625 3322 
L 3872 3322 
L 3872 2944 
L 3469 2944 
L 1997 -750 
z
" transform="scale(0.015625)"/>
      <path id="DejaVuSerif-Bold-76" d="M 1428 0 
L 250 2944 
L -116 2944 
L -116 3322 
L 1791 3322 
L 1791 2944 
L 1388 2944 
L 2228 844 
L 3066 2944 
L 2631 2944 
L 2631 3322 
L 3878 3322 
L 3878 2944 
L 3494 2944 
L 2316 0 
L 1428 0 
z
" transform="scale(0.015625)"/>
      <path id="DejaVuSerif-Bold-2e" d="M 519 506 
Q 519 750 694 925 
Q 869 1100 1113 1100 
Q 1359 1100 1534 925 
Q 1709 750 1709 506 
Q 1709 259 1534 84 
Q 1359 -91 1113 -91 
Q 869 -91 694 84 
Q 519 259 519 506 
z
" transform="scale(0.015625)"/>
      <path id="DejaVuSerif-Bold-6b" d="M 2216 0 
L 219 0 
L 219 378 
L 691 378 
L 691 4488 
L 219 4488 
L 219 4863 
L 1797 4863 
L 1797 1741 
L 3138 2944 
L 2741 2944 
L 2741 3322 
L 4256 3322 
L 4256 2944 
L 3641 2944 
L 2784 2175 
L 4184 378 
L 4544 378 
L 4544 0 
L 2638 0 
L 2638 378 
L 3028 378 
L 2106 1563 
L 1797 1288 
L 1797 378 
L 2216 378 
L 2216 0 
z
" transform="scale(0.015625)"/>
      <path id="DejaVuSerif-Bold-53" d="M 494 225 
L 494 1331 
L 891 1331 
Q 981 806 1318 547 
Q 1656 288 2253 288 
Q 2738 288 2991 472 
Q 3244 656 3244 1013 
Q 3244 1294 3072 1450 
Q 2900 1606 2363 1741 
L 1663 1913 
Q 978 2088 700 2398 
Q 422 2709 422 3284 
Q 422 3978 883 4364 
Q 1344 4750 2175 4750 
Q 2584 4750 3026 4681 
Q 3469 4613 3944 4475 
L 3944 3444 
L 3547 3444 
Q 3456 3925 3150 4148 
Q 2844 4372 2278 4372 
Q 1816 4372 1580 4211 
Q 1344 4050 1344 3731 
Q 1344 3441 1506 3289 
Q 1669 3138 2303 2975 
L 3003 2803 
Q 3653 2641 3945 2297 
Q 4238 1953 4238 1350 
Q 4238 644 3750 276 
Q 3263 -91 2316 -91 
Q 1859 -91 1409 -12 
Q 959 66 494 225 
z
" transform="scale(0.015625)"/>
      <path id="DejaVuSerif-Bold-69" d="M 588 4263 
Q 588 4516 763 4689 
Q 938 4863 1191 4863 
Q 1438 4863 1611 4689 
Q 1784 4516 1784 4263 
Q 1784 4016 1611 3842 
Q 1438 3669 1191 3669 
Q 938 3669 763 3841 
Q 588 4013 588 4263 
z
M 1797 378 
L 2272 378 
L 2272 0 
L 219 0 
L 219 378 
L 691 378 
L 691 2944 
L 219 2944 
L 219 3322 
L 1797 3322 
L 1797 378 
z
" transform="scale(0.015625)"/>
      <path id="DejaVuSerif-Bold-7a" d="M 225 0 
L 225 378 
L 2131 2956 
L 697 2956 
L 697 2388 
L 325 2388 
L 325 3322 
L 3419 3322 
L 3419 2950 
L 1509 372 
L 3047 372 
L 3047 972 
L 3419 972 
L 3419 0 
L 225 0 
z
" transform="scale(0.015625)"/>
     </defs>
     <use xlink:href="#DejaVuSerif-Bold-50"/>
     <use xlink:href="#DejaVuSerif-Bold-61" transform="translate(72.570312 0)"/>
     <use xlink:href="#DejaVuSerif-Bold-72" transform="translate(137.365234 0)"/>
     <use xlink:href="#DejaVuSerif-Bold-73" transform="translate(190.050781 0)"/>
     <use xlink:href="#DejaVuSerif-Bold-65" transform="translate(246.349609 0)"/>
     <use xlink:href="#DejaVuSerif-Bold-20" transform="translate(309.972656 0)"/>
     <use xlink:href="#DejaVuSerif-Bold-4c" transform="translate(344.787109 0)"/>
     <use xlink:href="#DejaVuSerif-Bold-61" transform="translate(415.099609 0)"/>
     <use xlink:href="#DejaVuSerif-Bold-74" transform="translate(479.894531 0)"/>
     <use xlink:href="#DejaVuSerif-Bold-65" transform="translate(526.085938 0)"/>
     <use xlink:href="#DejaVuSerif-Bold-6e" transform="translate(589.708984 0)"/>
     <use xlink:href="#DejaVuSerif-Bold-63" transform="translate(662.414062 0)"/>
     <use xlink:href="#DejaVuSerif-Bold-79" transform="translate(723.302734 0)"/>
     <use xlink:href="#DejaVuSerif-Bold-20" transform="translate(781.408203 0)"/>
     <use xlink:href="#DejaVuSerif-Bold-76" transform="translate(816.222656 0)"/>
     <use xlink:href="#DejaVuSerif-Bold-73" transform="translate(874.328125 0)"/>
     <use xlink:href="#DejaVuSerif-Bold-2e" transform="translate(930.626953 0)"/>
     <use xlink:href="#DejaVuSerif-Bold-20" transform="translate(965.441406 0)"/>
     <use xlink:href="#DejaVuSerif-Bold-50" transform="translate(1000.255859 0)"/>
     <use xlink:href="#DejaVuSerif-Bold-61" transform="translate(1072.826172 0)"/>
     <use xlink:href="#DejaVuSerif-Bold-63" transform="translate(1137.621094 0)"/>
     <use xlink:href="#DejaVuSerif-Bold-6b" transform="translate(1198.509766 0)"/>
     <use xlink:href="#DejaVuSerif-Bold-65" transform="translate(1267.796875 0)"/>
     <use xlink:href="#DejaVuSerif-Bold-74" transform="translate(1331.419922 0)"/>
     <use xlink:href="#DejaVuSerif-Bold-20" transform="translate(1377.611328 0)"/>
     <use xlink:href="#DejaVuSerif-Bold-53" transform="translate(1412.425781 0)"/>
     <use xlink:href="#DejaVuSerif-Bold-69" transform="translate(1484.642578 0)"/>
     <use xlink:href="#DejaVuSerif-Bold-7a" transform="translate(1522.630859 0)"/>
     <use xlink:href="#DejaVuSerif-Bold-65" transform="translate(1579.417969 0)"/>
    </g>
   </g>
   <g id="legend_1">
    <g id="patch_7">
     <path d="M 59.561406 61.486094 
L 205.816719 61.486094 
Q 208.016719 61.486094 208.016719 59.286094 
L 208.016719 27.937812 
Q 208.016719 25.737812 205.816719 25.737812 
L 59.561406 25.737812 
Q 57.361406 25.737812 57.361406 27.937812 
L 57.361406 59.286094 
Q 57.361406 61.486094 59.561406 61.486094 
z
" style="fill: #ffffff; stroke: #000000; stroke-linejoin: miter"/>
    </g>
    <g id="line2d_27">
     <path d="M 61.761406 34.646094 
L 72.761406 34.646094 
L 83.761406 34.646094 
" style="fill: none; stroke: #a51c30; stroke-width: 2.5; stroke-linecap: square"/>
     <g>
      <use xlink:href="#m9a35db5985" x="72.761406" y="34.646094" style="fill: #a51c30; stroke: #a51c30"/>
     </g>
    </g>
    <g id="text_16">
     <!-- Unpatched -->
     <g transform="translate(92.561406 38.496094) scale(0.11 -0.11)">
      <defs>
       <path id="DejaVuSerif-55" d="M 897 4331 
L 300 4331 
L 300 4666 
L 2125 4666 
L 2125 4331 
L 1528 4331 
L 1528 1919 
Q 1528 1025 1820 672 
Q 2113 319 2828 319 
Q 3544 319 3836 672 
Q 4128 1025 4128 1919 
L 4128 4331 
L 3531 4331 
L 3531 4666 
L 5106 4666 
L 5106 4331 
L 4513 4331 
L 4513 1856 
Q 4513 791 4103 350 
Q 3694 -91 2713 -91 
Q 1731 -91 1314 353 
Q 897 797 897 1856 
L 897 4331 
z
" transform="scale(0.015625)"/>
       <path id="DejaVuSerif-70" d="M 1313 1825 
L 1313 1497 
Q 1313 897 1542 583 
Q 1772 269 2209 269 
Q 2650 269 2876 622 
Q 3103 975 3103 1663 
Q 3103 2353 2876 2703 
Q 2650 3053 2209 3053 
Q 1772 3053 1542 2737 
Q 1313 2422 1313 1825 
z
M 738 2988 
L 184 2988 
L 184 3322 
L 1313 3322 
L 1313 2803 
Q 1481 3116 1742 3264 
Q 2003 3413 2388 3413 
Q 3000 3413 3387 2928 
Q 3775 2444 3775 1663 
Q 3775 881 3387 395 
Q 3000 -91 2388 -91 
Q 2003 -91 1742 57 
Q 1481 206 1313 519 
L 1313 -997 
L 1856 -997 
L 1856 -1331 
L 184 -1331 
L 184 -997 
L 738 -997 
L 738 2988 
z
" transform="scale(0.015625)"/>
       <path id="DejaVuSerif-68" d="M 263 0 
L 263 331 
L 781 331 
L 781 4531 
L 231 4531 
L 231 4863 
L 1356 4863 
L 1356 2731 
Q 1516 3069 1770 3241 
Q 2025 3413 2363 3413 
Q 2913 3413 3172 3097 
Q 3431 2781 3431 2113 
L 3431 331 
L 3944 331 
L 3944 0 
L 2356 0 
L 2356 331 
L 2853 331 
L 2853 1931 
Q 2853 2541 2704 2764 
Q 2556 2988 2175 2988 
Q 1775 2988 1565 2697 
Q 1356 2406 1356 1850 
L 1356 331 
L 1856 331 
L 1856 0 
L 263 0 
z
" transform="scale(0.015625)"/>
      </defs>
      <use xlink:href="#DejaVuSerif-55"/>
      <use xlink:href="#DejaVuSerif-6e" transform="translate(84.277344 0)"/>
      <use xlink:href="#DejaVuSerif-70" transform="translate(148.681641 0)"/>
      <use xlink:href="#DejaVuSerif-61" transform="translate(212.695312 0)"/>
      <use xlink:href="#DejaVuSerif-74" transform="translate(272.314453 0)"/>
      <use xlink:href="#DejaVuSerif-63" transform="translate(312.5 0)"/>
      <use xlink:href="#DejaVuSerif-68" transform="translate(368.505859 0)"/>
      <use xlink:href="#DejaVuSerif-65" transform="translate(432.910156 0)"/>
      <use xlink:href="#DejaVuSerif-64" transform="translate(492.089844 0)"/>
     </g>
    </g>
    <g id="line2d_28">
     <path d="M 61.761406 50.792031 
L 72.761406 50.792031 
L 83.761406 50.792031 
" style="fill: none; stroke-dasharray: 9.25,4; stroke-dashoffset: 0; stroke: #003366; stroke-width: 2.5"/>
     <g>
      <use xlink:href="#meab95416bf" x="72.761406" y="50.792031" style="fill: #003366; stroke: #003366; stroke-linejoin: miter"/>
     </g>
    </g>
    <g id="text_17">
     <!-- Patched (Mitigated) -->
     <g transform="translate(92.561406 54.642031) scale(0.11 -0.11)">
      <defs>
       <path id="DejaVuSerif-67" d="M 3359 2988 
L 3359 72 
Q 3359 -644 2965 -1033 
Q 2572 -1422 1844 -1422 
Q 1516 -1422 1216 -1362 
Q 916 -1303 641 -1184 
L 641 -488 
L 941 -488 
Q 997 -813 1206 -963 
Q 1416 -1113 1806 -1113 
Q 2313 -1113 2548 -827 
Q 2784 -541 2784 72 
L 2784 519 
Q 2616 206 2355 57 
Q 2094 -91 1709 -91 
Q 1097 -91 708 395 
Q 319 881 319 1663 
Q 319 2444 706 2928 
Q 1094 3413 1709 3413 
Q 2094 3413 2355 3264 
Q 2616 3116 2784 2803 
L 2784 3322 
L 3909 3322 
L 3909 2988 
L 3359 2988 
z
M 2784 1825 
Q 2784 2422 2554 2737 
Q 2325 3053 1888 3053 
Q 1444 3053 1217 2703 
Q 991 2353 991 1663 
Q 991 975 1217 622 
Q 1444 269 1888 269 
Q 2325 269 2554 583 
Q 2784 897 2784 1497 
L 2784 1825 
z
" transform="scale(0.015625)"/>
      </defs>
      <use xlink:href="#DejaVuSerif-50"/>
      <use xlink:href="#DejaVuSerif-61" transform="translate(62.785156 0)"/>
      <use xlink:href="#DejaVuSerif-74" transform="translate(122.404297 0)"/>
      <use xlink:href="#DejaVuSerif-63" transform="translate(162.589844 0)"/>
      <use xlink:href="#DejaVuSerif-68" transform="translate(218.595703 0)"/>
      <use xlink:href="#DejaVuSerif-65" transform="translate(283 0)"/>
      <use xlink:href="#DejaVuSerif-64" transform="translate(342.179688 0)"/>
      <use xlink:href="#DejaVuSerif-20" transform="translate(406.193359 0)"/>
      <use xlink:href="#DejaVuSerif-28" transform="translate(437.980469 0)"/>
      <use xlink:href="#DejaVuSerif-4d" transform="translate(476.994141 0)"/>
      <use xlink:href="#DejaVuSerif-69" transform="translate(579.386719 0)"/>
      <use xlink:href="#DejaVuSerif-74" transform="translate(611.369141 0)"/>
      <use xlink:href="#DejaVuSerif-69" transform="translate(651.554688 0)"/>
      <use xlink:href="#DejaVuSerif-67" transform="translate(683.537109 0)"/>
      <use xlink:href="#DejaVuSerif-61" transform="translate(747.550781 0)"/>
      <use xlink:href="#DejaVuSerif-74" transform="translate(807.169922 0)"/>
      <use xlink:href="#DejaVuSerif-65" transform="translate(847.355469 0)"/>
      <use xlink:href="#DejaVuSerif-64" transform="translate(906.535156 0)"/>
      <use xlink:href="#DejaVuSerif-29" transform="translate(970.548828 0)"/>
     </g>
    </g>
   </g>
  </g>
 </g>
 <defs>
  <clipPath id="p2067b051ec">
   <rect x="51.861406" y="20.237812" width="334.8" height="249.48"/>
  </clipPath>
 </defs>
</svg>
